
<?xml version="1.0" encoding="utf-8"?>
<!-- Generator: Adobe Illustrator 23.0.3, SVG Export Plug-In . SVG Version: 6.00 Build 0)  -->
<svg version="1.1" id="Layer_1" xmlns="http://www.w3.org/2000/svg" xmlns:xlink="http://www.w3.org/1999/xlink" x="0px" y="0px"
	 viewBox="0 0 22.9 31.5" style="enable-background:new 0 0 22.9 31.5;" xml:space="preserve">
<style type="text/css">
	.st0{fill:#00C2FF;}
	.st1{fill:#00CC80;}
</style>
<g id="logo-white" transform="translate(-140 -2649.417)">
	<path id="Rectangle_7" class="st0" d="M158.1,2651.9L158.1,2651.9c1.2,1.2,1.2,3.2,0,4.4l-9.9,9.9c-1.2,1.2-3.2,1.2-4.4,0l0,0
		c-1.2-1.2-1.2-3.2,0-4.4l9.9-9.9C154.9,2650.7,156.9,2650.7,158.1,2651.9"/>
	<path id="Rectangle_8" class="st1" d="M159.3,2662.5L159.3,2662.5c1.2,1.2,1.2,3.2,0,4.4l-9.9,9.9c-1.2,1.2-3.2,1.2-4.4,0l0,0
		c-1.2-1.2-1.2-3.2,0-4.4l9.9-9.9C156.1,2661.3,158.1,2661.3,159.3,2662.5z"/>
</g>
</svg>
