<svg xmlns="http://www.w3.org/2000/svg" viewBox="0 0 589.36 639.1"><g id="Layer_2" data-name="Layer 2"><g id="Layer_1-2" data-name="Layer 1"><path d="M420.08,357.33l12-3,5-2c.37-.1.73-.2.17,0,.5-.31.18-.12-.14.08l-5,2-4.42-1.62C323,384.14,220.7,371.7,119.5,333.4c-1.83,7.63-3.44,14.37-5,21.12l-2.77-.38q2.44-15.37,4.9-30.76l1-1c.2-.23.4-.46.09-.1.17-.45.06-.15-.06.14l-1,1c1-9.76,9.87-8.15,15.53-10C176,299,221.91,301.19,267.48,297.11v-8.17c-.69,1.4-1.28,2.57-1.86,3.74l-.48-.41L254.37,250.5h0c-5.08-4.9-8-10.77-8-17.94l1,1h0l-.93-1-8.18-11.7c11.6,6.27,9.6,15,13.14,20.66.29,1,.58,2.05.06.23,1,1.65.43.73-.11-.19l2-1c.32.67.65,1.35,1,2l2,5c.26,1,.51,2.07,0,.17.94,1.75.43.8-.08-.14q-1-2.52-2-5c-.33-.66-.67-1.32-1-2-6.71-15.9-15.14-31.32-19.77-47.81-9.61-34.21,12.3-78.24,45-94.43,2.14-1,4-2.7,12.84-8.84l-21.14,22.29,0,0-5,14c-.32,1.34-.65,2.68-1,4q-1.54,5.13-3.07,10.28l1,.26,2-10.56,1-4,1,39,0,0q4.49,14.49,9,29l0,0c17.44,28.68,32,58.29,29.12,93.27-.34,4.3-1.4,8.55-2,12.29l6.88.31-.29.21.25-.24,85.88,3,0,0,65,11.81c-.09.6-.17,1.2-.26,1.79l-54.77-5.59,0,0,40.14,5.77-.14.76-146-9.81c.45,4.49.61,6.17.69,7,42.08-.13,83.6-.3,124.05,10.3,11.09-1.6,20.82,1.9,30.21,7l-2,1-51-8.55c-.08.46-.15.93-.23,1.39l46.8,6.9L295.31,321.9l-17,24.47,0,0c-3.77,4.39-7.53,8.79-12.3,14.36-.22-1.12,0,.09.26,1.32L260,364.34h67.25c1.41-.1,2.82-.21-.18,0l.16,0H315.19l.09-1.37,65.4-6.68-2.4,1.81,2.31-.32L452,332.36l2-1,17.74-7.79-9.11-4.91.59-1.52,11,4.52,5.73-2.12c.92,9.91,5.53,19,1,28.83q-.45-9.54-.92-19.08l-1.47.13q1.2,9.46,2.42,18.93l2.09,6.81c15.7-19.94,31.72-39.1,67-31.47l-11.82-4.09c8.63-3,28.39,7.15,33.71,17.47,8.71,16.86,10.36,34.37,2.79,52.24v-.15c-.58-2.95-.28-1.41,0,.13v1l-1,1,0,0,1-1c-3.26,21.1-13.14,39-26.73,55.07l-.35-.16-1.63.33.66,1.53.2.26-5.81,7.15-.52-.49c.08-.59.17-1.18.26-1.77l1-.94,1.05-1.05,1-1,0,0-1,1-1.06,1-1,1-1,2.06,0-.05c-.33,1-.67,2-1,3v0C528.31,470,518.2,483.44,501,488.14l-.33-.12.31.14c-11.06,9-23.61,13.19-38,13.39-6.43.09-12.82,2.72-23.08,5.08,21.91,4.52,39.16,8.48,56.55,11.59,25.63,4.59,50.19,11.63,72.48,25.73,12.84,8.12,27.2,14.75,16.93,34l-.05,0q-1.48,3-3,6l0,0-3,4-2,2h0l2-2,1.84-1.18.42.42C567.49,604,546.73,608,526.92,613.94l0,0-.06-1,.3-.19-.27.22-12.74,5.18-.65-.4-2.55.19-.05,0L489,623l-.33.21.3-.25,19-3v0c-14.9,7-31.09,7.22-47,9,.15-.43.3-.85,0-.1-.1-.8,0-.36,0,.07-27.58,5.27-55.31,8.93-83.47,9.19-80.42.74-160.91,4-240.9-8a71,71,0,0,1-8.11-2.19l.18,0c.41-.24.14-.08-.14.09L68.66,615l0,0c-16.64-.2-29.64-10.12-44-16.65,19,7.37,38,14.31,57.13,15.8l-36.72-11c38.18,11.74,77.79,16.45,117,19.92,41.31,3.65,82.65,8,124.49,7.63,54.66-.45,108.88-5.57,163.2-9.71,12.61-1,24.86-7.37,38.18-5.91l-.19,0c-1.47.63-.66.28.15-.06l6-1a6.47,6.47,0,0,0,.75-.36c-.25.11-.5.24-.74.37h-2.3c18.78-6.29,38.24-12.18,57.17-19.44a77.58,77.58,0,0,0,23.49-14.25c5.91-5.26,8.26-13.17,0-19.59-31.3-24.5-70.12-25.64-106.56-34.19-2.42-.57-4.87-1-7.29-1.59-.41-.1-.73-.59-3.29-2.74,14.87,2.74,27.34,4.76,39.69,7.38s24.79,5.91,37.82,5.91l-77.71-15.34c-2.43-.68-4.86-1.37-.36-.1-4.62-.66-2.11-.3.39.06L438.8,523c19.63,5.26,42.45,9.26,63.43,17.78,13.06,5.3,31.45,8.23,33.86,27.54,1.27,10.17-4.13,18.43-12.9,23a229,229,0,0,1-76.92,24.33c-41,5.45-82.1,10.1-123.54,10.36-13.29.09-26.57,0-39.84-.92a886.65,886.65,0,0,1-123.66-8.56l2.83-.46c-27.3-4-58.39-10.4-87.87-23.66,17.6,6.63,35.59,11.45,54.38,12.52l5,1,13.3,2.84.16-.95L133.57,606l-5-1L83.78,593.7c29.93,5.1,50.44,9.66,71.2,11.89,43.37,4.68,86.63,11.46,130.51,9.36,45.16-2.17,90.35-3.94,135.49-6.48,10.76-.6,21.38-3.6,32.06-5.5.53.23,1.06.45.16.07,1,.18.39.07-.18,0,19.72-6.61,39.52-13,59.12-20,6-2.13,11.58-6.27,11.38-13.53-.2-7-7.25-7.93-12-10.73-26.25-15.41-56.59-14.24-82.95-21.72-34.5,67-94.9,57.86-152,54.78-22.22-1.19-44.12-8.39-66.17-12.85l.26-.06-.23.1-4-1c.2-.15.4-.3.61-.49-.21-.18-.41-.33-.61-.49l-.3-.2.33.17c0,.35,0,.7,0,1l-15-8,0,0-6-5,0,0-8.85-7.78-.33-.32c-1.83-3.43-3.67-6.86-6.67-12.46,9.3,4.93,9.6,16.22,18.83,17.56l4,3,2,1,1,1,2,1,2,1,2,1,.34.14-.38-.09-2-1-2-1-2-1-1-1-2.06-1-4-3-9.65-12.44,15.69,12.44,0,0c14.13,10.28,31.48,9.36,47.33,13.69,37.27,10.19,74.84,6.47,112.41,2.42,3.05-.33,6-1.4,9-2.12.29.14.57.28.12,0,.49.11.17,0-.14,0,19.94-4.19,39.14-9.41,45.87-33.13-31.66,9.67-63.29,17.77-96.55,14.22h22.13l.11-1.39C307.46,554,280,553.49,253,550.08c-27.34-3.44-54.33-9.78-81.36-14.84l.91,1.85,0,0v6h0c-38.24-23.37-69.18,4-102.46,14.91-2.15.71-3.85,3.11-5.5,4.95-1.47,1.63-2.59,3.58-4.89,3.23,25.64-30.6,64.29-30,99.72-39.26l-7.22-9.8c-37.64-5.52-132.14,27.08-147.85,54l4.35-11.87.24-.36.07-.36-.35-.62C37.77,532.93,74.47,527.46,109.88,519c12.06-2.89,24.67-3.47,38.07-5.24-13.5-32.19-25.77-63.28-32.07-96.25-1-5.23-.22-10.81-.26-16.23l0,0,2,1q1,7,2,14,1.83,9.89,3.65,19.77l1.06-.22q-2.37-9.76-4.75-19.52-1-7-2-14v-24c2.79,52.91,20.78,100.52,51,143.75l-.17.27a.86.86,0,0,0,0,.65l.2.32,4.71,6.7.31.26c33.75,9.52,68.18,15,107.78,18.13L265.3,544c32.8,1.69,59.26,1.5,85.63-2.07,3.89-.52,8.32-4.72,12.3.14l-4,1-.31.25.28-.28,4-1,2-1,.31.07c1.89.13.78,0-.34,0,14.29-4.54,28.53-9.24,42.88-13.57,17-5.15,22-20.12,28.45-34.06,1.09-2.39,2.47-4.65,7.47-13.91,14.62-38.71,23.63-86.35,23.49-137.26C443.32,352.68,421,362.51,396,363.54l24.16-6.17ZM278.34,339.39l-1,1h0c.32-.34.65-.67,1-1l1-1,.07-.08c.2-.44.07-.17,0,.11Zm291.53,0h0ZM526,432.23l1-1,.15-.3-.13.32-1,1Zm9-13,1-1c1.6-2.56,3.21-5.12.12-.19,2.33-5.34,1.12-2.56-.1.22l-1,1c-.33.33-.65.67-1,1l-1,2v0l1-2Zm29.94-86.9h0l-.94-1-1-1-.05.05c.32.34.65.67,1,1Zm-280.53-1h0Zm-11,14c-.33.33-.67.66-1,1h0l1-1Zm-150.75-21h0Zm218.64-4,0,0ZM572.87,588l1-1,1-1,1-1,1-1-.05,0-.93,1-1,1-1,1-.95,1ZM290.3,306.39l0,.05ZM520,585l1-1,1-1,2-1h0l-2,1-1,1-.92,1ZM397.14,568l1-1h0l-1,1Zm132.77-8,1,1,.16.32-.15-.33-1-1-1-1-1-1-7-6,0,0,7,6,1,1Zm51.93-4h0l-1-1-1-1c-1.5-2.54-3-5.08,0-.08-4.64-3.23-2.28-1.59.07,0l1,1ZM282.32,212.57l1,1,1,2h0c-.33-.66-.67-1.32-1-2l-1-1-1-1-.05,0Zm-35.93-4,1,.95c.34.67.67,1.34,1,2l.78,1.84,1.21-1.85,3,3,0,0,1,2,0,0c1.2,2.89,2.45,5.77,3.61,8.68,6.39,16,15.39,31.24,15.36,49.27l-3-7-.19-.31.22.29,3,7c6.43,16.58,4.88,33.79,4,50.94-.59.21-1.19.41-.08,0l0-.07c9.1-11,12.89-24.31,15-33.8,2.2-26.44-1.92-48-10.61-68.56l-2.34-4.46v0c-18.79-30.08-34.88-60.59-15.95-96.88l0,0c.59-2.77,1.18-5.54,1.89-8.85-10.21,11.32-22.43,20.41-25.86,35.85l.05-.07c-5.37,12-8.17,24.12-3,36.94l.19.28-.22-.26c-.19-2.51-.39-5-.57-7.3l14.58,33.28h-2l-1-2-.95-1ZM540.91,357.35h0l1,1c.25.21.49.43-.07-.07l.09.05ZM410.11,540.06l0,0Zm-249.59-23a2.54,2.54,0,0,0,0-1v0c0,.33,0,.66,0,1ZM500,364.35c-.33.33-.67.66-1,1h-1a5.93,5.93,0,0,0-.46-.56l-.5.55h0l.45-.06.43.14c0,.63.07,1.27.11,1.91h0c.32-.66.64-1.33,1-2l1-1,1-1c1.11-1.32,2.22-2.64,0-.06,1.51-3,.74-1.47,0,.08Zm-6,121.8h0Zm22-9c.33-.33.66-.66,1-1h0l-1,1-1,1-3,2-2,1-.15.28.16-.27,2-1,3-2Zm-9-2.95,0,0-1,1,.29-.14c-.77.56-.5.37-.24.18Zm17-12h0Zm10-8h0Zm23-127.79,1,1c.23.58.45,1.17,0,0,1,.45.48.22,0,0-.31-.34-.63-.68-.94-1l-.31-.1ZM274.33,199.59l0,0,.21.3ZM542.91,403.28l.1-.39-.11.38Zm-84.86-61.91-2,1-3,1-2,1-2,1-3,1-11,4-2,1-.32.21.34-.19,2-1,10.95-4,3-1,2-1,2-1,3-1,2-1Zm89.82,43.9.18-.33-.14.36-.13.31ZM238.41,190.58l0,0-.26-.31ZM563.88,397.3l.1-.43c0,.13-.08.27-.13.41l-1,2-2-.05c-1.53-17.81,8.93-35.38-1.84-55.19,10.57,5.51,4.46,12.83,7.52,18.12,0-3.13.89-3.25,2.31-.88v.24c.56,3.49.26,1.64,0-.22-1.77-29.21-25.36-43.19-52.06-31-21.33,9.69-31.54,29.29-43.22,49.05-.62,6.22-1.38,13.81-2.13,21.26l1.66-.41c-.61,33.06-10,63.77-25,92.95v0c18.12,0,34.29-6.6,49.92-15h2v0h-2l27-23,0,0c8.8-9.65,18.48-18.69,22-32h0L542,428.56c-3.23-7.31,5.82-7.6,5-12.51v-3.12l-24.05,32.29,0,0-13,11h0c-12.56,7.48-25,15.26-38.91,17.95L477,446.21c.49-1.28,1-2.55.09-.24.43-2.44.19-1.08,0,.27l-4.17,12.08-2-.58q9.55-44.22,19.1-88.43l0,0,17-20,.29.15-.27-.17c7.53-6.52,16.62-7.18,26-6.95l0,0c3.16,1.39,6.42,2.62,9.48,4.21,10.18,5.28,15.5,14.58,17.39,25.09.92,5.1,3.59,12.15-2.9,16.67,1.58-12.17.94-19.51-3-22.16,4.83,13.33-.25,24.62-4,36.11-.22.54-.43,1.08,0,.12-.07,1,0,.44,0-.14l6.93-13.85c.37,3.63.73,7.26,1.1,10.88l-.24.36.21-.38,3,0-11.25,26,1.94.8q5.66-13.4,11.3-26.8ZM378.16,577l.3-.24-.26.28ZM466,337.35l-.28.15.32-.11.95-1,4-2c.38,6.45.77,12.89.94,15.61-.92-2.65,5.08-9.58-.93-15.6l-4,2C466.71,336.71,466.37,337,466,337.35ZM408.14,558l.13-.24-.14.23ZM565.85,412.26c-.32.67-.65,1.34-1,2h0c.33-.66.67-1.32,1-2ZM508,554.05h0l-2-1-.25-.11.22.14Zm-162.74-1,.4-.16-.36.2Zm211.67-5,.32.18-.29-.21-2-1-.31-.17.3.18ZM512,358.34h0l1.93,1c-26.67,31.26-21.92,73.36-40.3,109.07,21.39-4.58,34.12-17,46.35-30.23h0c7.86-13.81,18.6-26.79,22.78-41.63,4.62-16.4,5.92-35.58-16.68-43.35l-12.11,6.1ZM413.11,528.08l2-1,2-1v0l-2,1-2,1Zm28.94-22,.17-.29c-.05.11-.1.21-.14.32l-.12.32ZM268.35,259.5v0l-.33-.3Zm191.7,72.88,2-1c1.9-.61,3.81-1.23.12,0,3.31-2.1,1.6-1-.1.07l-2,1ZM294.31,242.51h0l-.15-.32Zm-36.94-10,1,2q2.49,5.49,5,11l.17.3-.2-.27-5-10.95-1-2-1-2c-.08-.36-.16-.72,0-.15-.27-.52-.1-.2.06.12C256.72,231.18,257.05,231.85,257.37,232.53Zm311.5,171.76-.17.23.15-.25L569,404Zm-20,15c.33-.68.67-1.35,1-2l1-1.93c.66-1.34,1.31-2.68,2-4l2-4,1-3,.13-.34-.08.38c-.34,1-.68,2-1,3-.67,1.33-1.33,2.66-2,4l-2,4c-.34.64-.69,1.28-1,1.92l-1,2.07ZM280.34,326.41l-1,2h0c.32-.67.65-1.33,1-2l1-1,2-4,1-1c.14-.28.28-.57,0-.09.12-.51.05-.2,0,.12l-1,1c-.66,1.33-1.33,2.65-2,4ZM511,612l-.13,0c-.38.26-.13.09.11-.07l.41-.16Zm17-5,3-1c.31-.08.62-.15.14,0,.43-.26.16-.09-.11.07l-3,1-3,1-4,1-.34.18.32-.2,4-1Zm17-6,3-1,0,0-3,1-.37.22ZM498,594l.11,0c.4-.28.16-.11-.09.06s-.57.19-.14,0ZM121.59,332.37l.29.2-.31-.18-.11-.05Zm392.36,15c-.28.12-.56.25,0,0-.51.4-.27.21,0,0ZM339.27,584v.13c.17.44.07.17,0-.1-.33-.16-.66-.32-.15-.08C338.55,583.79,338.91,583.88,339.27,584Zm-86.89-2-.42-.08.42.07,0,0C253.09,582.16,252.73,582.09,252.38,582ZM567.85,335.39l-.18-.3.2.28c.2.23.39.46,0,.06C568.39,335.67,568.12,335.53,567.85,335.39ZM261.38,260.46l-.16-.2.14.22c.34,1,.68,2,1,3l2.49,15.79,1.69-.36q-2.1-7.71-4.21-15.41ZM449,484.12c.15-.26.3-.53.07-.12.1-.45,0-.15,0,.15l-.13.33Zm7-17.91c-.17.27-.33.53-.09.14-.12.44,0,.14,0-.17l.13-.32ZM153.54,614l.35.15-.38-.12c-.54-.2-1.08-.41-.15-.05ZM532,579.05c-.67,1-1.34,2-2,3l-.23.22c-2,2.83-.9,1.28.18-.26l2-3c.33-1,.67-2,1-3,.23-.52.46-1,0-.1.26-1,.12-.44,0,.11C532.6,577,532.27,578,532,579.05Zm-151.78-40c-.54.09-1.08.19-.18,0l.15-.07.16,0ZM349.22,545c.53.07,1.06.13.11,0,.89-.38.41-.18-.08,0l-.38.18ZM272.34,276.47h0c.17.58.33,1.15,0,0C272.85,277.54,272.6,277,272.34,276.47ZM318.27,586l-5,1H313c-2.56.49-1.16.22.24,0l5-1,.18-.06ZM471,495.15c-.59-.07-1.18-.13-.08,0-1.07.32-.5.15.06,0l.35-.18Zm48.93-29c-.82.53-1.64,1.05-.09.06l.07-.08Zm2,5c-.69.75-1.37,1.5,0,0-1,1.88-.49,1,0,.05ZM450.06,624.94l.26,0c1.83-.49.8-.22-.24.06-.3.07-.61.15-.15,0ZM481,492.13l5-2c1.48-.5,3-1,.22-.07,2.41-1.63,1.11-.75-.18.12l-5,1h-.16c-2.06.4-.93.18.2,0,0,.35,0,.69,0,1Zm11-115.78c-.62.54-1.25,1.07-.1.09-.63,1.39-.29.63.06-.13l.11-.32Zm-24,45.9c.24-1.08.48-2.17,0,.08.22-2.3.12-1.19,0-.09-.22.54-.43,1.08,0,0C467.86,423.4,468,422.83,468,422.25Zm48.9-67.92c1-.27,2.06-.54.2-.06l-.16.09Zm-363.4-43.94c.88-.25,1.76-.51.18-.05,1.33-1,.6-.44-.14.1l-.3.19Zm418.31,32,0,0c.35,1.23.69,2.46,0,.12C573,344.63,572.44,343.5,571.84,342.38ZM463,496.14l-6,1-.46-.08.41.13,6-1Zm63.88,32,0,0c1.53.48,3,1,.13,0C530.11,528.54,528.51,528.32,526.92,528.1ZM486,598c-1.57.28-3.14.56-.27,0-2.72,1.1-1.24.5.23-.1.3-.08.6-.17.19-.05ZM251.39,218.55h0c.62,1.37,1.25,2.74,0-.08C253.18,221,252.28,219.76,251.39,218.55ZM154.54,325.38c1.16-.24,2.32-.48.18,0,1.91-1.11.88-.51-.15.08l-.2.05C154,325.69,154.27,325.53,154.54,325.38ZM415.13,555.07c-.88,1.22-1.75,2.44-.08.11-1.09,2.65-.52,1.26.05-.13l.18-.35Zm-80.9-2,0,0c1.73.35,3.47.7.36.07C337.78,553.36,336,553.22,334.23,553.07ZM392.15,577l-5,2h0l5-2,.31-.16ZM497,615.94c1.61-.28,3.21-.57.25-.05,2.77-1.17,1.28-.54-.21.09l-.29.19ZM243.38,203.57h0l-3-6-.14-.22.12.24ZM151.53,331.36c1.88-.24,3.76-.49.25,0,3.39-1.06,1.59-.5-.22.07ZM383.17,581l-9,2,0,0,9-2,.3-.25ZM484,604c-1.87.5-3.73,1-.19,0-3.17,1.84-1.51.87.16-.09l.32-.21ZM162.51,522.11l0,0c1.4,1.64,2.81,3.29.09.1C166,524.67,164.26,523.39,162.51,522.11ZM405.13,352.36c-3,.5-6,1-.13,0-5.71,1.67-2.79.82.12,0l6-1,30.91-11,.3-.22-.26.27-30.93,11ZM469,389.29l0,0c-.14-3.07-.29-6.15,0-.22C468.09,383.23,468.56,386.26,469,389.29ZM363.19,617.94h.15c4.54-1.19,2.21-.58-.12,0l-.32.23ZM176.5,306.43l-11.5.84.13,1.12,11.35-2,.27-.2ZM229.41,618l.27.12c-1.44-.45-.87-.27-.3-.09,3,.23,6,.45-.15,0C235.39,617.4,232.4,617.68,229.41,618ZM91.64,616c-.77-.21-1.55-.41-.29-.08-1.29-.13-.48,0,.33,0l17.18,4,.21-1ZM471,608l-18.74,3.52.26,1.16L471,608l.35-.15ZM223.42,307.41c1.17.09,2.34.17.12,0,2.22-.48,1-.23-.15,0l-17.8-1.54-.08,1.5ZM367.19,631.94l-20.71,1c.08.77.17,1.53.25,2.29l20.46-3.3c1.76-.11,3.53-.23.06,0C370.68,631.37,368.93,631.65,367.19,631.94Zm43.92-2,30.37-2.75-.1-.76-36.54,2.77c.05.5.1,1,.16,1.5l6.12-.77Zm-1-92.86-23,7,0,0-12,3-.34.18.32-.21c13.24,2.26,24.18-3.53,34.94-10Zm16-2,61.43,10.65c-18-5.1-36.35-8.85-54.72-12.27-2.07-.39-4.47,1-6.72,1.61l-.31.25ZM201.47,312.42h0c-29,1.51-72.4,11.9-75.36,18.43,44.27-17.78,91.49-14.07,137.11-21.6Zm60,11.28c-39.14,2.91-78.11,3.32-118.24,13.93,35.3,12.26,69.27,19.67,103.92,24.46C252.45,349.28,265.84,340.4,261.47,323.7Zm53.74,224.1-.25.9,23.44-1.28,0-.91ZM208.34,321.21h19.08l-.15-1ZM355,618H337.82l.18,1.89ZM295.65,306.26c2.87-13.46,3.83-18,4.88-22.87l-1.6-2C298.26,286.49,297.55,291.83,295.65,306.26Zm197.48,86.06,1.88.35q1.74-6.15,3.49-12.28l-1.19-.38Q495.21,386.18,493.13,392.32ZM413.38,614l.07-1-17.59,2.56.13.85Zm-60-63.17.15.91,15.4-2.16-.18-1.16Zm-92-245.06-.12-1.8-15.07,1.8Zm313.25,45.59-.81.17q1,6.67,2,13.37l1-.16Zm-9,37.92,1.27.25,2.58-12.13-.73-.16Zm-306.2-69.37c-.06-.48-.13-1-.2-1.44l-17.55,2.93Zm39.05-67.14-1.85.38c.81,2.75,1.62,5.5,3.53,12C299.16,258.38,298.77,255.56,298.39,252.74Zm-132.8,69.41.19,1,8-1.26-.18-1ZM392.11,631.44h-12.2c0,.36,0,.72.07,1.08ZM391,615.79c0-.33,0-.65,0-1H376.08Zm-160.1,16.62-14.43-.88,0,.88Zm5.54-327.2Zm28.29,23.9,1.54.3.48-4.06-1.59-.2C265,326.47,264.85,327.79,264.7,329.11Zm207.1,42.44-1.15-.11-.48,5.9.83.08ZM340.57,305.87l-.06-1-3.6.25,0,.76Zm22.5,55.92-.1-.86-6.63.92.06.51Zm-62.12-95-1.36-.08c0,1.19,0,2.38,0,3.56a4,4,0,0,0,1,.23C300.74,269.27,300.84,268.05,301,266.84ZM264,633.32v.23h6.66v-.23ZM241.54,321l.11-1.06-10-.55Zm96-.39-.13-1-13.63,1Zm128.3,194.3.57-.52-5.66-1.07-.09.48Zm13.75-155.68c0-4.17,0-2.42.06-.67C479.79,356.82,479.93,355.08,479.58,359.23ZM452.73,529.78l.22-1-10.36-.9Zm12.51-121.56-.8.07c.07.88.14,1.75.2,2.63l.83-.07C465.39,410,465.32,409.1,465.24,408.22ZM149.89,316.53l.15.65,4.07-.95-.17-.69Zm315,84.41c1.53-4.68,1.33-4.08,0,0ZM422.43,539.82l-.74-.27-1.08,2.81.81.3C421.76,541.71,422.09,540.76,422.43,539.82ZM277.74,618.33Zm-1.51-417.28h0C272.85,194.84,272.32,193.88,276.23,201.05ZM378,617.34l.07.12h2.29v-.12Zm88.11-14.17Zm20.12-85.75-.17.76,2.21.26.09-.7ZM170.52,330Zm104.54,4.59.6.31,1-2-.67-.33C275.7,333.19,275.38,333.87,275.06,334.56Zm40.12-14.76Zm-2.51-14.92,0,.38,10.55-.84Zm78.72,267.21-.25-.62c-.64.27-1.27.55-9.37,4.11ZM269.31,584.61Zm-59,47-.06-.71-2-.23-.08.64ZM545.23,374.47c.61-1.14.91-1.46.84-1.63a8.57,8.57,0,0,0-.84-1.34ZM486.74,537.72l0-.65-1.67-.28-.09.57Zm-52.28,77.64ZM275.67,306.65a5.46,5.46,0,0,0,.31-1.07c0-.19-.2-.36-.31-.54Zm27,241.1ZM173.4,326.62Zm247.05,286c.9-.29.45-.15,0,0Zm-145.58-319a2.45,2.45,0,0,0-.2.76c0,.2.23.39.35.58A6.88,6.88,0,0,0,274.87,293.56ZM151.19,630.31a5.27,5.27,0,0,0,1.25.34c.19,0,.37-.22.56-.34ZM267.87,312.94h0C267.08,311,266.93,310.68,267.87,312.94Zm78.59,49.83h-.7C347.38,362.59,346.91,362.65,346.46,362.77Zm-173-51.57Zm349,35.15ZM198.69,322.88a2.4,2.4,0,0,0,.73.16,1.76,1.76,0,0,0,.57-.33A7.36,7.36,0,0,0,198.69,322.88Zm285.66,92.48c.21-2.64.17-2.21,0,0Zm25.86,59.76ZM324.67,634.5ZM199.5,307.86c.05.09.11.27.14.26.26-.05.52-.14.78-.21A7,7,0,0,0,199.5,307.86ZM334.26,624.6v-.25l-1.16-.06,0,.25Zm156-228.77Zm-3.69,4.41c-.1.05-.3.12-.29.14a7.83,7.83,0,0,0,.25.78C486.5,400.86,486.53,400.55,486.52,400.24ZM450.3,604.48ZM396,320v-.21h-.84V320Zm-218-6c.22-.06.45-.12-.29.07C178.31,313.63,178.11,313.75,177.94,314Zm321,62.59.31-.23-.34-.16Zm-242-231.65a1.45,1.45,0,0,0-.27-.44A1.53,1.53,0,0,0,256.93,144.9Zm35,106.78a1.65,1.65,0,0,0-.26-.44A1.5,1.5,0,0,0,291.9,251.68ZM233.12,633.37a3.71,3.71,0,0,0,.67,0A3,3,0,0,0,233.12,633.37Zm60.94-84.72a1.64,1.64,0,0,0,.52-.35A2.26,2.26,0,0,0,294.06,548.65ZM469.6,413a1.37,1.37,0,0,0-.14.46A1.45,1.45,0,0,0,469.6,413ZM380.4,303.93a1.3,1.3,0,0,0-.48-.16A1.3,1.3,0,0,0,380.4,303.93Zm114.83,66.61c-.5.15-.28.08-.07-.05Zm80.21,6,.47.56a4,4,0,0,0,0-.69C575.73,376.5,575.6,376.53,575.44,376.59ZM338.9,362.88a1.1,1.1,0,0,0,.44.13c.09,0,.17-.19.25-.29A3.44,3.44,0,0,0,338.9,362.88ZM435,526.47l-.11.23.46-.05Zm-146.5,20.95-.45,0,.28.22Zm61.55,7,.14.21.28-.15Zm80.11,57.15.11-.21-.45.06Zm-249.84,6a1.5,1.5,0,0,0,.45-.27A1.38,1.38,0,0,0,180.31,617.63Zm290.45-.25.36.16.06-.23Zm-226.5,1.23a1.2,1.2,0,0,0,.42-.25A1.38,1.38,0,0,0,244.26,618.61Zm76.29.85a.93.93,0,0,0-.35-.08c-.08,0-.15.12-.22.19A3.82,3.82,0,0,0,320.55,619.46Zm141.56,3.9-.33.15.43.06Zm-42.78,1.89a1.86,1.86,0,0,0-.51.33A1.86,1.86,0,0,0,419.33,625.25Zm-22.12,6.29.1-.2-.44.06ZM283.35,546.93l.31,0-.12-.28ZM537.6,355.84l-.25-.16-.05.24ZM194,319l.14-.21h-.28ZM372,575.62l-.06.32.29-.12ZM517.13,348.74l.24-.19-.25-.1ZM399.54,305l.3-.08-.22-.19Z"/><path d="M355.23,104.71c-11.36,24.07-19.32,49-20,75.91l0,0c.93,14.76,4.19,28.69,13.08,41,.82,1.13-1,6.07-2.61,6.73-9.38,3.82-14-4-19.5-9.09-35.32-33-34.66-72.93-16.61-112.38C321.88,80,335.89,55.05,329,24.32l.58-.91,1.72-.59,2,4,1,3,1,3,1,4c.09.57.17,1.14,0,.11.4,1,.18.43,0-.09l-1-4c-.32-1-.65-2-1-3l-1-3-2-4c-4-7.8-6.08-17.32-17-19-.38-.36-.77-.72-.09-.09-.84-.38-.36-.16.12.06l2.33,2.76-.63.51-6.72-5.26h0c9.89-5.78,15.22,3.24,21.55,7.28,14.29,9.14,23.45,23,31.39,37.68l-.06-.05c.35,1,.7,2,1,3l0,0V78.6l2.37-6.81,2.92,1.12L355.2,104.74l-1-1c.08-.47.16-.94.62-3.55-1.12,2.53-1.34,3-1.57,3.55l-1,1-1,2-2,5,0,0,2-5,1-2,1-1h1C354.56,104,354.89,104.38,355.23,104.71Zm-28,103.86h0Zm-8-2h0l-1-1c-.64-.55-1.27-1.1,0,0-1.55-.67-.78-.33,0,0Zm3-4,1,1,.22.29-.25-.27-1-1Zm-6-13h0l-1-1,0,0Zm-3-8h0Zm11-91.87,1-1,0,0-1,1Zm-1,107.85h0l-.16-.32Zm24-82.87-1,2q-2.55,5.64-5.08,11.27l1.21.49,3.84-11.78c.34-.67.67-1.34,1-2Zm13-25.94.13-.26-.16.23-.14.28Zm-15,137.75,1-2c.16-.27.32-.55.06-.1.14-.5.05-.19,0,.12l-1,2-.32.22Zm-3-11h0l-1-2c-.26-.51-.52-1-.06-.11-.75-.68-.33-.3.09.08ZM319.28,100.75l0,.08c-.09.54,0,.22,0-.1l.24-.32Zm15,28-.07.12c-.15.57-.06.21,0-.15l1-2c.28-.51.57-1,.08-.14.24-1,.1-.4-.05.17Zm1,95.85-.33-.15.37.11c.23.2.46.4.13.11C335.82,224.78,335.52,224.67,335.23,224.56Zm-2-100.87,0-.06c-.19.69-.11.38,0,.07.32-.68.64-1.36,1-2l3-1L337,121l.21-.35c1.3-2.3,2.67-4.57,3.89-6.91,12-23,26.63-45.56,12.1-72.95h0c-6.22-11.2-13.53-21.41-24.95-28h0c1,1.33,2,2.65,3,4v1c14.47,24.07,13,47.69-2,70.91l0,0c-23.15,38.67-26.74,85.89-7.55,104.35-2.25-32,3.44-62,21.22-88.8l-8.68,17.43Zm-25,67.91,0,0,4,7c.23.5.45,1,.08.17.63.67.26.27-.12-.13Q310.27,195.09,308.28,191.6Zm23-50.9q-2.22,6.92-4.42,13.84l1.65.44q1.37-7.15,2.72-14.32c.23-.5.47-1,.08-.17C331.47,139.58,331.37,140.14,331.28,140.7Zm-4,21c-4,6.66-5.76,13.53-2,20.94v14.54l2.75-.24q-1.38-7.16-2.75-14.31l2-21c.14-.27.28-.55.08-.14C327.39,161.05,327.34,161.36,327.29,161.67Zm-23.22-14.21.93.15q1-7.56,2.11-15.12l-1.08-.17Q305.06,139.9,304.07,147.46Zm.91,22.9,1-.17q-1-4.89-2-9.79l-.63.1Zm31.17-17.93h.57v-4.12h-.57ZM324.78,91.62c2.74-7.87,2.46-7.08,0,0Zm-14.43,97.61ZM338.54,140l-.6.37.57.35A4.2,4.2,0,0,0,338.54,140ZM302,155.38Zm53.64-55h0C357.68,93.13,357.57,93.5,355.67,100.33Zm7-17.22a3.65,3.65,0,0,0,0-.66A2.92,2.92,0,0,0,362.71,83.11ZM333.63,167a3.07,3.07,0,0,0,0-.68A3.11,3.11,0,0,0,333.63,167Zm-.69,10.8.2.26.13-.29Z"/><path d="M113.62,384.3v5.4l-1.08,0-1.83-30.57,2.87-.17v25.35l-.2-.3Z"/><path d="M319.26,13.85q-1-3-2-6l0,0q6.15,7.76,12.29,15.53l-.58.91-7.74-8.43.07-.1-.05-1,.05.07-1.05-1.05.05,0h-1.06Z"/><path d="M62.67,582l9,7.35c-8.17-3.19-15.69-7-15.94-17.33l0,0,7,10Z"/><path d="M8.42,586.38Q4.21,580.7,0,575l1.32-.94,7.83,11.57Z"/><path d="M20.77,595l-9.39-5.61.75-.76,8.61,6.4Z"/><path d="M115.62,401.27c-.78-2-1.55-4,0-.09v.12Z"/><path d="M239.65,541.09l6.43,1-.18,1.17-6.61-.91Z"/><path d="M362.23,46.84Q361.14,42.91,360,39l.33-.34c.61,2.72,1.22,5.43,1.82,8.15Z"/><path d="M263.33,545l-2.86-.6.17-1,2.79.32Z"/><path d="M528.73,318.61h3v.58h-3Z"/><path d="M365.39,69.12c1.76-7.48,1.57-6.66,0,0C366.09,62.28,366.17,61.41,365.39,69.12Z"/><path d="M514.19,618.15l-3.24.79v0c0-.33,0-.66,0-1l.05,0,2.55-.19Z"/><path d="M511,618.94l-3,1v0l3-1Z"/><path d="M548.11,445.35c-.38.65-.75,1.3-1.12,2l-.2-.25c.32-.63.65-1.25,1-1.87Z"/><path d="M173.33,529.92l.2-1.85,0,0,.15,2.07Z"/><path d="M265.62,292.68a7.76,7.76,0,0,1-.69.4c.06-.28.13-.54.21-.81Z"/><polygon points="363.21 49.83 363.38 49.48 363.19 49.8 363.21 49.83"/><path d="M541.18,454.46l-1.28,1.73h0v-2l0,.05.78-.25Z"/><path d="M526.92,613.94l-.27.24L527,614Z"/><path d="M539.9,456.19l-1,1v0l1-1Z"/><path d="M317.29,7.85,316,7.13l.63-.51.63,1.26Z"/><path d="M320.27,14.84l-1-1,0,0h1.06l-.05,0v1Z"/><path d="M321.23,15.89l-1-1.05,0,0h1.05l-.05-.07a6.5,6.5,0,0,0,.05,1Z"/><polygon points="360.02 38.98 360.02 38.65 360.35 38.64 360.02 38.98"/><path d="M168.61,522c0,.42,0,.83,0,1.24l-.2-.32c0-.22,0-.44,0-.65Z"/><path d="M173.53,528.07l0,0Z"/><path d="M266.33,164.65l0,0Z"/><path d="M172.52,537.09l0,0Z"/><path d="M420.12,357.37l0,0Z"/><path d="M175.51,558.05l.82-1.14.33.32-1.17.8Z"/><path d="M8.66,559.18c0-.45,0-.89,0-1.34l.35.62-.07.36Z"/><path d="M175.49,558l0,0Z"/><path d="M194.49,562.06l0,0Z"/><path d="M185.46,565.05l0,0Z"/><path d="M191.46,570l0,0Z"/><path d="M55.72,572l0,0Z"/><path d="M585.86,578l-.05,0Z"/><path d="M62.71,582l0,0Z"/><path d="M395.16,302.44l0,0Z"/><path d="M582.82,584l0,0Z"/><path d="M9.15,585.65l.91,1.07-.6.62-1-1Z"/><path d="M581.66,586.79h.42v.43Z"/><path d="M10.43,588.36l-1-1,.6-.62,1.07.93Z"/><path d="M11.38,589.36l-1-1,.7-.71,1,1Z"/><path d="M20.74,595l0,0Z"/><path d="M68.66,615l0,0Z"/><path d="M299.31,363.31h-.21l.17.05Z"/><path d="M299.27,363.36l.46.09-.42-.14Z"/><path d="M278.32,346.37l0,0Z"/><path d="M525,455.18l0,0Z"/><path d="M510,456.2h0Z"/><path d="M532.94,342.39l0,0Z"/><path d="M490,369.31l0,0Z"/><path d="M522.92,445.22l0,0Z"/><path d="M239.38,148.71l4.44-6.1c-2.09,5.29-3,7.67-6.45,16.3l2.06-10.27Z"/><path d="M234.76,175.39h0C235.76,169.46,235.93,168.5,234.76,175.39Z"/><path d="M263.38,121.68l0,0Z"/><path d="M253.39,214.57l0,0Z"/><path d="M254.39,216.57l0,0Z"/><path d="M201.47,312.42h0Z"/><path d="M411.12,629.93c-.81-.06-1.61-.12,0,0-1.44-.65-.7-.32,0,0Z"/><path d="M331.23,17.89v0Z"/><path d="M353.21,40.82Z"/><path d="M329.23,88.76l0,0Z"/></g></g></svg>