<svg width="860" height="861" viewBox="0 0 860 861" fill="none" xmlns="http://www.w3.org/2000/svg">
<path d="M389.657 63.3618L386.983 18.6417L391.646 18.3628L392.88 38.998L420.862 37.3248L419.628 16.6897L424.356 16.407L427.03 61.1271L422.302 61.4098L421.111 41.4774L393.129 43.1506L394.32 63.083L389.657 63.3618Z" fill="white"/>
<path d="M364.537 63.2784L380.019 60.4171L380.763 64.4449L345.142 71.0281L344.398 67.0003L359.88 64.1391L352.482 24.1129L357.14 23.2522L364.537 63.2784Z" fill="white"/>
<path d="M293.223 87.0961L279.264 44.5262L283.582 43.1104L294.749 77.1663L302.08 43.0391L304.209 42.3411L330.265 65.3183L319.158 31.4449L323.476 30.0291L337.434 72.5989L333.725 73.8153L304.888 48.3149L296.932 85.8797L293.223 87.0961Z" fill="white"/>
<path d="M279.181 93.5891L274.921 95.6584L257.136 59.0454L234.57 70.0072L232.78 66.3229L259.607 53.2918L279.181 93.5891Z" fill="white"/>
<path d="M188.71 86.4269L239.895 124.648L236.444 126.971L185.259 88.7498L188.71 86.4269Z" fill="white"/>
<path d="M166.392 103.197L220.001 137.935L216.712 140.482L163.103 105.744L166.392 103.197Z" fill="white"/>
<path d="M145.236 121.412L201.033 152.515L197.921 155.274L142.124 124.172L145.236 121.412Z" fill="white"/>
<path d="M125.337 140.991L183.075 168.321L180.153 171.281L122.414 143.951L125.337 140.991Z" fill="white"/>
<path d="M106.781 161.848L166.206 185.285L163.487 188.432L104.061 164.996L106.781 161.848Z" fill="white"/>
<path d="M89.6504 183.891L150.501 203.331L147.996 206.652L87.1455 187.212L89.6504 183.891Z" fill="white"/>
<path d="M74.0211 207.022L136.028 222.379L133.749 225.86L71.7422 210.502L74.0211 207.022Z" fill="white"/>
<path d="M59.962 231.14L122.852 242.347L120.809 245.971L57.9191 234.764L59.962 231.14Z" fill="white"/>
<path d="M41.3817 286.977C42.9582 282.829 45.3004 279.429 48.4084 276.776C51.5011 274.163 55.0266 272.513 58.9848 271.827C62.9676 271.195 66.9732 271.645 71.0013 273.176C75.0295 274.707 78.3027 277.024 80.8207 280.126C83.3635 283.283 84.9156 286.886 85.4769 290.933C86.0382 294.981 85.5306 299.078 83.9541 303.226C82.7717 306.337 81.1618 309.012 79.1244 311.25C77.0869 313.488 74.7225 315.145 72.031 316.222L70.288 312.342C74.8413 310.329 78.0653 306.831 79.9602 301.845C81.2183 298.535 81.605 295.236 81.1203 291.948C80.6355 288.66 79.3726 285.738 77.3315 283.182C75.2752 280.666 72.6119 278.786 69.3415 277.543C66.0711 276.3 62.8317 275.936 59.6234 276.451C56.3999 277.006 53.515 278.352 50.9687 280.488C48.4223 282.624 46.5201 285.347 45.2619 288.657C43.3519 293.682 43.4581 298.447 45.5804 302.951L41.7 304.694C40.4031 302.101 39.7241 299.264 39.6629 296.183C39.6264 293.157 40.1993 290.088 41.3817 286.977Z" fill="white"/>
<path d="M28.1579 329.775C28.9654 326.547 30.2593 323.572 32.0396 320.85C33.8095 318.17 35.7448 316.235 37.8456 315.046L40.9342 317.731C38.9679 318.911 37.1619 320.68 35.5163 323.039C33.912 325.409 32.763 327.98 32.0693 330.753C31.0961 334.644 31.0698 337.738 31.9905 340.036C32.9526 342.344 34.5719 343.782 36.8485 344.352C38.5869 344.786 40.1081 344.595 41.4121 343.778C42.7057 343.002 43.8131 341.915 44.7343 340.519C45.6968 339.132 46.8509 337.156 48.1965 334.59C49.8423 331.527 51.281 329.116 52.5126 327.357C53.7857 325.608 55.3846 324.227 57.3095 323.213C59.2241 322.24 61.5266 322.091 64.217 322.764C66.4108 323.312 68.2526 324.389 69.7425 325.993C71.2739 327.607 72.2774 329.75 72.753 332.42C73.2287 335.089 73.0213 338.204 72.1309 341.764C71.5097 344.247 70.5522 346.581 69.2584 348.764C67.9957 350.999 66.5467 352.836 64.9115 354.274L61.6366 351.805C63.2925 350.285 64.669 348.562 65.7662 346.637C66.9047 344.723 67.7225 342.772 68.2194 340.785C69.172 336.977 69.1465 333.914 68.143 331.596C67.1706 329.33 65.5254 327.907 63.2075 327.327C61.469 326.892 59.9323 327.058 58.5973 327.823C57.2933 328.64 56.1549 329.763 55.182 331.191C54.2401 332.671 53.1015 334.673 51.7663 337.198C50.1826 340.188 48.7543 342.558 47.4812 344.306C46.2392 346.107 44.6609 347.493 42.7464 348.466C40.8733 349.449 38.6122 349.609 35.9631 348.946C33.7694 348.397 31.912 347.295 30.391 345.639C28.9011 344.035 27.9235 341.877 27.4581 339.166C27.0342 336.465 27.2675 333.335 28.1579 329.775Z" fill="white"/>
<path d="M19.474 374.783C19.9199 371.485 20.8772 368.386 22.3458 365.484C23.8087 362.625 25.5184 360.488 27.4749 359.074L30.8413 361.402C29.0174 362.791 27.418 364.749 26.0431 367.276C24.7105 369.808 23.8527 372.491 23.4697 375.324C22.9323 379.298 23.2481 382.376 24.417 384.558C25.6282 386.745 27.3966 387.996 29.7221 388.31C31.498 388.551 32.9887 388.192 34.1944 387.236C35.3944 386.322 36.3749 385.12 37.1361 383.63C37.9395 382.145 38.8682 380.053 39.922 377.354C41.2192 374.128 42.3827 371.573 43.4124 369.689C44.4844 367.81 45.921 366.261 47.7221 365.04C49.5174 363.862 51.7893 363.459 54.5376 363.83C56.7785 364.133 58.7281 365 60.3861 366.429C62.0865 367.865 63.3205 369.883 64.0883 372.484C64.8561 375.085 64.9942 378.204 64.5026 381.84C64.1596 384.377 63.4658 386.802 62.4212 389.115C61.4131 391.476 60.176 393.461 58.7097 395.071L55.1821 392.98C56.6598 391.285 57.8375 389.421 58.7153 387.387C59.6353 385.358 60.2326 383.329 60.5069 381.3C61.0328 377.41 60.6691 374.368 59.4156 372.175C58.1987 370.03 56.4063 368.798 54.0385 368.477C52.2627 368.237 50.7536 368.572 49.5114 369.48C48.3057 370.436 47.2983 371.678 46.4891 373.205C45.7165 374.779 44.8062 376.895 43.7581 379.552C42.5146 382.699 41.3568 385.212 40.2848 387.091C39.2493 389.017 37.8339 390.57 36.0386 391.748C34.2855 392.932 32.0559 393.34 29.3499 392.975C27.1089 392.672 25.1411 391.781 23.4465 390.304C21.7884 388.874 20.5784 386.837 19.8163 384.194C19.0965 381.557 18.9824 378.42 19.474 374.783Z" fill="white"/>
<path d="M9.757 442.006L69.8669 420.384L69.9016 424.544L9.79166 446.166L9.757 442.006Z" fill="white"/>
<path d="M11.4392 469.872L69.9811 444.307L70.2919 448.455L11.7499 474.02L11.4392 469.872Z" fill="white"/>
<path d="M14.9679 497.564L71.6835 468.17L72.269 472.288L15.5533 501.683L14.9679 497.564Z" fill="white"/>
<path d="M20.327 524.962L74.9662 491.867L75.8238 495.937L21.1846 529.032L20.327 524.962Z" fill="white"/>
<path d="M27.4932 551.943L79.8147 515.294L80.9407 519.298L28.6191 555.947L27.4932 551.943Z" fill="white"/>
<path d="M36.4348 578.389L86.208 538.347L87.5973 542.268L37.8241 582.31L36.4348 578.389Z" fill="white"/>
<path d="M47.1124 604.183L94.1175 560.925L95.764 564.745L48.7589 608.003L47.1124 604.183Z" fill="white"/>
<path d="M59.4787 629.211L103.508 582.928L105.405 586.631L61.3752 632.913L59.4787 629.211Z" fill="white"/>
<path d="M87.283 663.431C85.8217 661.329 84.9255 659.068 84.5943 656.648C84.2631 654.228 84.5486 651.873 85.4509 649.583L89.6857 650.069C88.0854 654.195 88.4177 657.887 90.6827 661.145C93.8487 665.7 98.1293 666.102 103.524 662.351L125.805 646.862L116.453 633.409L119.817 631.071L131.835 648.36L106.349 666.078C102.495 668.757 98.9542 669.867 95.726 669.409C92.5571 668.962 89.7428 666.969 87.283 663.431Z" fill="white"/>
<path d="M140.507 676.748C143.362 680.089 144.709 683.372 144.547 686.597C144.417 689.795 142.714 692.794 139.438 695.593L123.577 709.148L120.749 705.839L124.739 702.43C122.744 702.788 120.722 702.523 118.673 701.636C116.652 700.782 114.754 699.317 112.98 697.241C110.541 694.386 109.282 691.534 109.203 688.683C109.124 685.832 110.203 683.45 112.442 681.538C114.615 679.68 117.032 678.962 119.692 679.383C122.38 679.835 125.193 681.781 128.131 685.219L135.075 693.345L136.632 692.014C138.838 690.129 139.981 688.085 140.063 685.883C140.178 683.652 139.223 681.353 137.2 678.985C135.814 677.363 134.208 676.042 132.381 675.021C130.587 673.973 128.762 673.315 126.907 673.049L128.155 669.288C130.367 669.643 132.541 670.479 134.677 671.797C136.845 673.086 138.789 674.737 140.507 676.748ZM116.162 695.448C117.826 697.394 119.691 698.69 121.759 699.336C123.859 699.955 126.043 699.884 128.312 699.124L132.496 695.548L125.636 687.52C121.894 683.141 118.498 682.255 115.449 684.86C113.957 686.135 113.258 687.715 113.353 689.598C113.48 691.454 114.416 693.404 116.162 695.448Z" fill="white"/>
<path d="M179.964 717.578L145.895 731.609L142.513 728.385L154.95 693.731L158.378 696.999L147.718 726.451L176.721 714.487L179.964 717.578Z" fill="white"/>
<path d="M196.438 730.322C199.911 733.015 201.895 735.957 202.39 739.148C202.912 742.305 201.853 745.587 199.212 748.993L186.43 765.482L182.99 762.816L186.205 758.668C184.324 759.424 182.291 759.575 180.105 759.122C177.952 758.695 175.797 757.645 173.639 755.972C170.671 753.671 168.86 751.133 168.204 748.358C167.549 745.582 168.123 743.031 169.926 740.704C171.678 738.445 173.899 737.251 176.589 737.124C179.313 737.022 182.462 738.357 186.037 741.127L194.484 747.676L195.739 746.057C197.516 743.764 198.222 741.531 197.855 739.357C197.515 737.15 196.114 735.092 193.652 733.184C191.966 731.877 190.126 730.909 188.13 730.279C186.161 729.616 184.24 729.343 182.37 729.458L182.829 725.522C185.067 725.421 187.365 725.799 189.724 726.656C192.109 727.48 194.347 728.701 196.438 730.322ZM176.391 753.571C178.414 755.139 180.504 756.03 182.66 756.244C184.842 756.423 186.966 755.911 189.034 754.707L192.406 750.356L184.06 743.887C179.507 740.358 176.003 740.178 173.545 743.348C172.343 744.899 171.979 746.587 172.453 748.413C172.954 750.204 174.267 751.924 176.391 753.571Z" fill="white"/>
<path d="M209.01 780.935C206.698 779.482 204.68 777.761 202.957 775.771C201.293 773.768 200.183 771.886 199.626 770.126L203.267 768.181C203.869 769.869 204.881 771.588 206.301 773.337C207.744 775.05 209.441 776.52 211.392 777.745C213.993 779.38 216.157 780.186 217.885 780.163C219.672 780.126 221.03 779.367 221.961 777.886C222.619 776.839 222.787 775.81 222.464 774.801C222.163 773.755 221.58 772.759 220.714 771.812C219.871 770.828 218.673 769.647 217.12 768.268C215.08 766.382 213.492 764.779 212.356 763.461C211.242 762.106 210.52 760.568 210.189 758.849C209.895 757.152 210.349 755.347 211.552 753.432C213.051 751.048 215.27 749.721 218.21 749.452C221.151 749.183 224.391 750.161 227.931 752.386C229.774 753.544 231.457 754.954 232.982 756.618C234.529 758.245 235.65 759.831 236.342 761.375L232.722 763.408C231.395 760.307 229.106 757.735 225.854 755.692C223.398 754.148 221.265 753.412 219.456 753.485C217.682 753.58 216.353 754.332 215.468 755.741C214.787 756.825 214.585 757.908 214.863 758.989C215.177 760.093 215.756 761.137 216.599 762.121C217.465 763.068 218.717 764.283 220.355 765.766C222.359 767.63 223.911 769.21 225.011 770.506C226.112 771.802 226.82 773.28 227.138 774.941C227.455 776.601 227.034 778.353 225.877 780.195C224.31 782.688 222.014 784.017 218.988 784.181C216.021 784.333 212.695 783.25 209.01 780.935Z" fill="white"/>
<path d="M246.218 801.802C243.241 800.313 240.895 798.328 239.178 795.847C237.499 793.385 236.574 790.657 236.403 787.661C236.251 784.627 236.909 781.641 238.379 778.703C239.849 775.764 241.834 773.465 244.334 771.806C246.834 770.146 249.572 769.25 252.549 769.117C255.563 769.003 258.559 769.69 261.535 771.179C264.13 772.477 266.181 774.147 267.688 776.189C269.253 778.212 270.139 780.492 270.349 783.03L266.285 783.573C266.037 781.589 265.331 779.852 264.167 778.364C263.023 776.837 261.554 775.625 259.76 774.728C257.585 773.64 255.372 773.153 253.12 773.267C250.926 773.362 248.884 774.058 246.995 775.355C245.144 776.672 243.646 778.475 242.5 780.764C241.336 783.092 240.782 785.391 240.839 787.662C240.953 789.913 241.621 791.965 242.842 793.816C244.12 795.648 245.846 797.108 248.021 798.196C249.815 799.093 251.656 799.561 253.545 799.599C255.434 799.637 257.247 799.161 258.984 798.169L260.986 801.747C258.83 803.101 256.464 803.778 253.888 803.778C251.331 803.739 248.774 803.08 246.218 801.802Z" fill="white"/>
<path d="M286.44 789.783C288.259 788.067 290.352 787.055 292.719 786.747C295.126 786.454 297.779 786.876 300.678 788.014L299.065 792.125L298.076 791.668C294.779 790.374 291.8 790.374 289.138 791.667C286.476 792.96 284.429 795.433 282.994 799.087L276.728 815.053L272.498 813.393L284.797 782.056L288.848 783.646L286.44 789.783Z" fill="white"/>
<path d="M312.26 792.124L316.591 793.5L306.399 825.584L302.068 824.208L312.26 792.124ZM316.684 785.807C315.789 785.523 315.134 784.979 314.718 784.175C314.302 783.371 314.229 782.542 314.5 781.689C314.759 780.875 315.29 780.26 316.093 779.844C316.897 779.428 317.746 779.362 318.641 779.646C319.536 779.93 320.191 780.474 320.607 781.278C321.036 782.041 321.122 782.829 320.863 783.643C320.579 784.537 320.035 785.193 319.231 785.609C318.428 786.025 317.579 786.091 316.684 785.807Z" fill="white"/>
<path d="M348.997 801.806C352.079 802.492 354.712 803.821 356.895 805.793C359.088 807.724 360.61 810.117 361.461 812.973C362.311 815.828 362.375 818.88 361.652 822.129C360.92 825.419 359.563 828.177 357.582 830.402C355.6 832.628 353.202 834.17 350.388 835.03C347.625 835.858 344.682 835.924 341.558 835.228C338.893 834.635 336.598 833.556 334.673 831.991C332.799 830.394 331.412 828.381 330.51 825.951L326.436 844.255L322.001 843.268L332.011 798.288L336.26 799.234L334.814 805.731C336.628 803.862 338.748 802.585 341.173 801.901C343.64 801.226 346.248 801.194 348.997 801.806ZM342.122 831.223C344.413 831.733 346.611 831.676 348.717 831.052C350.832 830.386 352.628 829.19 354.105 827.465C355.623 825.748 356.661 823.641 357.217 821.142C357.773 818.643 357.723 816.315 357.066 814.158C356.461 811.969 355.341 810.125 353.708 808.625C352.075 807.125 350.113 806.12 347.822 805.61C345.49 805.091 343.267 805.164 341.151 805.83C339.078 806.505 337.282 807.701 335.763 809.417C334.296 811.101 333.284 813.193 332.728 815.691C332.172 818.19 332.196 820.534 332.802 822.724C333.449 824.922 334.568 826.767 336.16 828.257C337.802 829.716 339.79 830.704 342.122 831.223Z" fill="white"/>
<path d="M391.345 840.728C390.405 841.387 389.274 841.852 387.952 842.122C386.678 842.354 385.363 842.388 384.007 842.224C380.873 841.844 378.561 840.705 377.072 838.805C375.583 836.906 375.026 834.41 375.401 831.318L377.848 811.113L371.876 810.39L372.338 806.578L378.31 807.301L379.196 799.995L383.707 800.541L382.821 807.848L392.987 809.079L392.525 812.892L382.359 811.66L379.942 831.61C379.701 833.601 380.004 835.185 380.849 836.362C381.743 837.501 383.121 838.184 384.985 838.41C385.917 838.523 386.824 838.482 387.707 838.288C388.633 838.1 389.447 837.769 390.149 837.295L391.345 840.728Z" fill="white"/>
<path d="M439.834 850.79L418.417 790.607L422.577 790.586L443.994 850.77L439.834 850.79Z" fill="white"/>
<path d="M467.705 849.203L442.341 790.574L446.49 790.278L471.855 848.906L467.705 849.203Z" fill="white"/>
<path d="M495.41 845.769L466.209 788.953L470.33 788.382L499.53 845.197L495.41 845.769Z" fill="white"/>
<path d="M522.825 840.503L489.917 785.751L493.991 784.908L526.899 839.659L522.825 840.503Z" fill="white"/>
<path d="M549.831 833.429L513.36 780.983L517.369 779.87L553.839 832.317L549.831 833.429Z" fill="white"/>
<path d="M576.307 824.578L536.435 774.668L540.361 773.292L580.233 823.202L576.307 824.578Z" fill="white"/>
<path d="M602.137 813.988L559.04 766.836L562.866 765.202L605.963 812.355L602.137 813.988Z" fill="white"/>
<path d="M627.207 801.707L581.075 757.52L584.784 755.636L630.916 799.823L627.207 801.707Z" fill="white"/>
<path d="M659.263 790.327C658.089 791.105 656.881 791.676 655.638 792.04C654.382 792.463 653.216 792.597 652.14 792.44L651.563 788.676C653.302 788.905 655.078 788.418 656.892 787.215C658.385 786.225 659.228 785.026 659.421 783.618C659.649 782.186 659.185 780.6 658.03 778.857L638.044 748.723L641.831 746.211L661.817 776.346C663.562 778.977 664.23 781.529 663.822 784.001C663.414 786.473 661.894 788.582 659.263 790.327ZM635.861 741.262C635.078 741.781 634.244 741.951 633.357 741.771C632.469 741.591 631.778 741.128 631.283 740.382C630.811 739.67 630.665 738.871 630.845 737.984C631.025 737.097 631.506 736.394 632.288 735.875C633.07 735.356 633.905 735.187 634.792 735.366C635.655 735.511 636.323 735.938 636.795 736.649C637.313 737.432 637.483 738.266 637.303 739.153C637.124 740.04 636.643 740.743 635.861 741.262Z" fill="white"/>
<path d="M714.224 737.505C714.223 739.657 713.767 741.658 712.855 743.508C712.004 745.364 710.737 746.982 709.054 748.361C707.008 750.038 704.642 751.122 701.955 751.613C699.329 752.11 695.904 752.104 691.679 751.594C688.265 754.226 684.586 755.862 680.642 756.502C676.698 757.141 672.885 756.763 669.203 755.367C665.522 753.971 662.342 751.639 659.665 748.372C656.933 745.039 655.248 741.4 654.609 737.456C654.002 733.485 654.463 729.604 655.991 725.815C657.525 721.965 660.008 718.634 663.44 715.821C666.873 713.009 670.58 711.239 674.563 710.512C678.579 709.759 682.488 710.086 686.29 711.494C690.064 712.869 693.317 715.223 696.049 718.556C698.429 721.46 700.009 724.634 700.789 728.077C701.575 731.459 701.542 734.852 700.689 738.254C699.869 741.628 698.273 744.729 695.9 747.556C700.632 748.147 704.235 747.428 706.71 745.4C709.284 743.29 710.614 740.436 710.698 736.836L714.224 737.505ZM663.279 745.411C665.496 748.117 668.124 750.045 671.163 751.195C674.235 752.319 677.391 752.602 680.629 752.044C683.901 751.459 686.906 750.044 689.646 747.799C692.385 745.555 694.346 742.9 695.529 739.834C696.713 736.768 697.039 733.632 696.508 730.426C695.978 727.22 694.603 724.264 692.386 721.558C690.168 718.852 687.54 716.924 684.501 715.773C681.462 714.623 678.323 714.327 675.084 714.885C671.846 715.442 668.857 716.844 666.118 719.088C663.379 721.333 661.401 724.002 660.184 727.095C659.001 730.161 658.658 733.31 659.156 736.543C659.687 739.749 661.061 742.705 663.279 745.411Z" fill="white"/>
<path d="M717.681 679.422L742.28 702.403L739.309 705.584L734.819 701.389C735.5 703.66 735.548 705.953 734.962 708.267C734.346 710.552 733.12 712.677 731.285 714.641C728.285 717.852 725.022 719.563 721.497 719.773C717.971 719.923 714.477 718.382 711.016 715.148L696.753 701.823L699.855 698.502L713.791 711.522C716.379 713.94 718.94 715.136 721.475 715.11C724.01 715.084 726.384 713.887 728.598 711.517C731.015 708.929 732.144 706.159 731.983 703.206C731.791 700.224 730.292 697.422 727.486 694.801L714.579 682.742L717.681 679.422Z" fill="white"/>
<path d="M759.744 654.601L742.995 677.238C745.959 679.113 749.04 679.72 752.235 679.06C755.397 678.373 758.082 676.538 760.289 673.554C761.533 671.874 762.383 670.115 762.841 668.277C763.264 666.414 763.273 664.536 762.868 662.645L766.758 662.338C767.31 664.604 767.291 666.925 766.7 669.301C766.135 671.643 765.053 673.895 763.455 676.055C761.399 678.834 758.989 680.872 756.224 682.17C753.45 683.408 750.573 683.853 747.592 683.506C744.612 683.158 741.801 682.007 739.16 680.053C736.519 678.099 734.571 675.782 733.316 673.102C732.087 670.388 731.625 667.605 731.931 664.753C732.262 661.866 733.354 659.171 735.207 656.667C737.059 654.163 739.304 652.348 741.942 651.222C744.581 650.095 747.364 649.74 750.294 650.156C753.19 650.547 755.975 651.732 758.65 653.712L759.744 654.601ZM738.345 658.989C736.416 661.596 735.632 664.413 735.993 667.44C736.345 670.407 737.77 673.001 740.268 675.22L754.467 656.03C751.614 654.291 748.704 653.704 745.738 654.269C742.763 654.775 740.299 656.348 738.345 658.989Z" fill="white"/>
<path d="M759.45 633.007C758.069 630.923 757.427 628.688 757.525 626.303C757.646 623.882 758.513 621.339 760.127 618.675L763.904 620.963L763.285 621.861C761.45 624.89 760.943 627.825 761.765 630.668C762.587 633.511 764.677 635.949 768.034 637.983L782.703 646.871L780.349 650.757L751.557 633.313L753.812 629.591L759.45 633.007Z" fill="white"/>
<path d="M778.518 583.135L804.906 614.884C807.136 617.503 808.449 619.908 808.844 622.1C809.239 624.292 808.881 626.518 807.77 628.776C807.054 630.231 806.155 631.477 805.074 632.514C803.993 633.551 802.767 634.303 801.396 634.769L799.285 631.377C801.57 630.599 803.24 629.138 804.295 626.995C804.973 625.617 805.165 624.261 804.871 622.927C804.595 621.555 803.746 619.995 802.323 618.249L800.044 615.487L763.256 614.143L765.348 609.893L796.611 611.157L776.54 587.155L778.518 583.135Z" fill="white"/>
<path d="M831.139 555.66L767.267 556.69L768.579 552.742L832.451 551.712L831.139 555.66Z" fill="white"/>
<path d="M838.555 528.746L774.892 534.015L775.939 529.988L839.602 524.72L838.555 528.746Z" fill="white"/>
<path d="M844.167 501.399L780.995 510.883L781.772 506.796L844.944 497.313L844.167 501.399Z" fill="white"/>
<path d="M847.952 473.741L785.548 487.397L786.052 483.267L848.456 469.611L847.952 473.741Z" fill="white"/>
<path d="M849.892 445.891L788.533 463.66L788.762 459.507L850.121 441.738L849.892 445.891Z" fill="white"/>
<path d="M849.979 417.975L789.935 439.778L789.887 435.618L849.932 413.815L849.979 417.975Z" fill="white"/>
<path d="M848.212 390.114L789.748 415.855L789.425 411.708L847.889 385.967L848.212 390.114Z" fill="white"/>
<path d="M844.6 362.432L787.973 391.998L787.376 387.881L844.002 358.316L844.6 362.432Z" fill="white"/>
<path d="M810.853 302.196L818.094 326.083L831.107 327.756L832.536 332.472L783.722 325.869L782.366 321.398L819.299 288.802L820.747 293.58L810.853 302.196ZM807.68 304.964L787.77 322.234L813.918 325.543L807.68 304.964Z" fill="white"/>
<path d="M766.42 279.251C764.089 274.03 763.51 269.382 764.682 265.308C765.854 261.234 768.622 258.223 772.985 256.275C777.349 254.328 781.439 254.278 785.254 256.126C789.03 257.992 792.083 261.535 794.414 266.756L799.318 277.743L812.234 271.978L814.164 276.303L773.254 294.563L766.42 279.251ZM790.667 268.568C788.858 264.516 786.599 261.81 783.89 260.449C781.141 259.107 778.15 259.157 774.916 260.6C771.604 262.078 769.55 264.28 768.753 267.206C767.917 270.148 768.404 273.646 770.212 277.698L775.064 288.568L795.519 279.438L790.667 268.568Z" fill="white"/>
<path d="M752.667 251.773L750.341 247.648L789.367 225.648L791.693 229.774L752.667 251.773Z" fill="white"/>
<path d="M754.552 173.405C757.276 176.908 758.964 180.677 759.614 184.711C760.239 188.711 759.816 192.58 758.345 196.319C756.814 200.049 754.347 203.237 750.946 205.883C747.544 208.528 743.863 210.12 739.904 210.658C735.885 211.189 732.001 210.643 728.251 209.018C724.502 207.394 721.265 204.83 718.541 201.327C716.498 198.7 715.05 195.934 714.197 193.03C713.345 190.127 713.158 187.245 713.637 184.386L717.858 184.914C717.21 189.85 718.523 194.423 721.797 198.633C723.971 201.429 726.588 203.474 729.649 204.769C732.71 206.064 735.863 206.504 739.107 206.089C742.326 205.64 745.316 204.342 748.078 202.195C750.84 200.047 752.834 197.469 754.062 194.46C755.264 191.418 755.614 188.254 755.113 184.968C754.612 181.683 753.274 178.642 751.1 175.847C747.8 171.603 743.675 169.217 738.724 168.689L739.252 164.468C742.141 164.707 744.917 165.602 747.582 167.151C750.186 168.693 752.51 170.778 754.552 173.405Z" fill="white"/>
<path d="M701.486 165.012C698.406 161.877 696.835 158.696 696.773 155.467C696.68 152.268 698.171 149.158 701.245 146.138L716.127 131.515L719.177 134.62L715.434 138.298C717.4 137.802 719.435 137.926 721.54 138.668C723.616 139.381 725.611 140.711 727.524 142.658C730.156 145.337 731.61 148.095 731.887 150.934C732.163 153.772 731.252 156.223 729.152 158.286C727.113 160.29 724.752 161.174 722.068 160.939C719.355 160.674 716.414 158.928 713.244 155.702L705.753 148.078L704.293 149.514C702.223 151.547 701.224 153.665 701.295 155.869C701.336 158.102 702.447 160.329 704.63 162.551C706.126 164.072 707.82 165.279 709.712 166.171C711.575 167.092 713.441 167.622 715.31 167.759L714.326 171.597C712.095 171.396 709.869 170.713 707.646 169.547C705.393 168.411 703.34 166.899 701.486 165.012ZM724.474 144.668C722.68 142.842 720.729 141.678 718.622 141.177C716.484 140.706 714.31 140.928 712.099 141.844L708.173 145.701L715.574 153.234C719.611 157.342 723.06 157.991 725.921 155.18C727.321 153.805 727.908 152.181 727.683 150.308C727.428 148.465 726.358 146.585 724.474 144.668Z" fill="white"/>
<path d="M671.516 155.282L668.079 152.31L699.141 116.39L702.578 119.363L671.516 155.282Z" fill="white"/>
<path d="M655.555 142.056L651.955 139.283L680.936 101.663L684.536 104.437L655.555 142.056Z" fill="white"/>
<path d="M639.451 66.3167L626.522 128.875L622.955 126.733L635.885 64.1751L639.451 66.3167Z" fill="white"/>
<path d="M614.804 53.208L606.056 116.487L602.355 114.587L611.103 51.308L614.804 53.208Z" fill="white"/>
<path d="M589.34 41.7646L584.813 105.484L580.994 103.834L585.522 40.1144L589.34 41.7646Z" fill="white"/>
<path d="M563.173 32.0367L562.886 95.9164L558.966 94.5234L559.254 30.6437L563.173 32.0367Z" fill="white"/>
<path d="M536.419 24.0675L540.372 87.8254L536.369 86.6957L532.415 22.9378L536.419 24.0675Z" fill="white"/>
<path d="M509.194 17.8921L517.372 81.2468L513.302 80.3853L505.124 17.0306L509.194 17.8921Z" fill="white"/>
<path d="M481.619 13.5376L493.984 76.2097L489.866 75.6203L477.501 12.9482L481.619 13.5376Z" fill="white"/>
<path d="M453.816 11.0233L470.315 72.7362L466.166 72.4215L449.667 10.7086L453.816 11.0233Z" fill="white"/>
</svg>
