<svg width="1577" height="1570" viewBox="0 0 1577 1570" fill="none" xmlns="http://www.w3.org/2000/svg">
<g clip-path="url(#clip0)">
<path d="M715.73 151.49C705.33 148.57 697.17 144.363 691.25 138.87L696.68 126.31C702.433 131.383 709.897 135.31 719.07 138.09C728.156 140.867 737.669 141.978 747.15 141.37C760.537 140.53 770.423 137.443 776.81 132.11C783.197 126.777 786.143 120.197 785.65 112.37C785.27 106.37 783.153 101.703 779.3 98.3699C775.265 94.9394 770.537 92.4187 765.44 90.9797C758.065 88.9468 750.588 87.3046 743.04 86.0598C733.776 84.4409 724.619 82.2602 715.62 79.5298C708.822 77.3646 702.648 73.5911 697.62 68.5298C692.5 63.4231 689.653 56.2397 689.08 46.9797C688.552 39.6715 690.183 32.3692 693.77 25.9797C697.357 19.5397 703.167 14.2064 711.2 9.97974C719.233 5.75308 729.37 3.25642 741.61 2.48975C750.102 1.97189 758.625 2.64508 766.93 4.48975C774.624 6.07958 782.008 8.91357 788.79 12.8799L784.24 25.8098C777.794 22.1207 770.829 19.4238 763.58 17.8098C756.659 16.2239 749.549 15.6246 742.46 16.0298C729.353 16.8498 719.65 19.9964 713.35 25.4697C707.05 30.9431 704.15 37.6632 704.65 45.6299C705.023 51.6299 707.14 56.3231 711 59.7097C715.102 63.2439 719.955 65.7986 725.19 67.1799C730.79 68.7599 738.29 70.3965 747.69 72.0899C756.842 73.6433 765.889 75.7607 774.78 78.4299C781.557 80.5529 787.717 84.2899 792.73 89.3198C797.763 94.3598 800.563 101.436 801.13 110.55C801.663 117.871 799.995 125.184 796.34 131.55C792.667 138.003 786.747 143.307 778.58 147.46C770.413 151.613 760.203 154.077 747.95 154.85C737.097 155.56 726.203 154.424 715.73 151.49V151.49Z" fill="white"/>
<path d="M975.55 21.14L888.55 159.95L873.08 157.73L828.76 -0.00012207L845.76 2.44006L883.99 139.44L959.67 18.85L975.55 21.14Z" fill="white"/>
<path d="M1091.38 142.7L1105.55 148.2L1084.87 201.47C1075.81 204.701 1066.21 206.121 1056.61 205.65C1046.36 205.214 1036.25 203.072 1026.7 199.31C1012.74 193.89 1001.36 185.953 992.56 175.5C983.907 165.348 978.216 153.011 976.11 139.84C973.954 126.297 975.531 112.423 980.67 99.7098C985.46 86.8636 993.657 75.5632 1004.38 67.0198C1014.82 58.7211 1027.35 53.4588 1040.59 51.8098C1054.13 50.0365 1067.95 51.8832 1082.05 57.3499C1092.1 61.1237 1101.37 66.7095 1109.4 73.8299C1116.76 80.344 1122.48 88.5012 1126.1 97.6399L1113.28 103.45C1106.47 88.2633 1094.56 77.3631 1077.54 70.7498C1066.92 66.4489 1055.38 64.9311 1044.01 66.3399C1033.22 67.6825 1023.01 71.9806 1014.51 78.7598C1005.79 85.7225 999.131 94.9192 995.23 105.37C991.064 115.679 989.792 126.93 991.55 137.91C993.286 148.597 997.878 158.617 1004.84 166.91C1012.19 175.665 1021.69 182.36 1032.41 186.34C1046.78 191.92 1060.35 193.053 1073.1 189.74L1091.38 142.7Z" fill="white"/>
<path d="M1408.92 290.81L1269.77 365.81L1257.57 354.41L1312.67 231.08L1193.25 294.36L1181.25 283.12L1246.58 139.12L1258.46 150.22L1202.13 273.88L1322.75 210.25L1333.54 220.33L1277.39 345.05L1397.82 280.36L1408.92 290.81Z" fill="white"/>
<path d="M1431.36 419.08C1429.36 429.653 1422.31 438.82 1410.21 446.58L1351.44 484.17L1343.59 471.91L1358.38 462.46C1351.42 462.677 1344.55 460.803 1338.67 457.08C1332.33 453.273 1326.7 447.52 1321.78 439.82C1315.02 429.24 1312.16 419.21 1313.21 409.73C1314.26 400.25 1318.92 392.86 1327.21 387.56C1335.26 382.407 1343.62 381.17 1352.27 383.85C1360.92 386.53 1369.33 394.24 1377.48 406.98L1396.73 437.08L1402.5 433.39C1410.67 428.17 1415.43 421.91 1416.78 414.61C1418.13 407.31 1415.99 399.277 1410.38 390.51C1406.63 384.597 1401.87 379.382 1396.33 375.1C1391.18 371.03 1385.31 367.976 1379.02 366.1L1384.89 354.23C1392.4 356.611 1399.37 360.432 1405.42 365.48C1412.06 370.907 1417.78 377.37 1422.36 384.62C1430.32 397 1433.32 408.487 1431.36 419.08ZM1350.02 450.78C1356.82 453.857 1364.43 454.687 1371.73 453.15L1387.24 443.24L1368.24 413.49C1357.86 397.217 1347 392.703 1335.67 399.95C1330.14 403.49 1327.14 408.38 1326.67 414.62C1326.2 420.86 1328.38 427.767 1333.2 435.34C1337.81 442.553 1343.41 447.687 1350.02 450.74V450.78Z" fill="white"/>
<path d="M1506.37 557.87L1383.21 554.68L1377.21 540.24L1462.13 451.11L1468.19 465.74L1395.75 541.37L1500.67 544.08L1506.37 557.87Z" fill="white"/>
<path d="M1476.02 697.5L1455.95 605.5C1444.7 608.833 1436.43 615.24 1431.12 624.72C1425.81 634.2 1424.48 645.003 1427.12 657.13C1428.46 663.594 1431.1 669.718 1434.88 675.13C1438.55 680.292 1443.33 684.56 1448.88 687.62L1441.09 698.08C1434.13 694.447 1428.17 689.171 1423.71 682.71C1418.91 675.731 1415.55 667.859 1413.85 659.56C1411.38 648.273 1411.6 637.75 1414.51 627.99C1417.27 618.454 1422.65 609.881 1430.03 603.24C1437.75 596.364 1447.16 591.666 1457.29 589.63C1467.31 587.268 1477.77 587.513 1487.67 590.34C1496.92 592.981 1505.25 598.14 1511.73 605.24C1518.34 612.559 1522.87 621.517 1524.84 631.18C1527.08 640.752 1526.69 650.754 1523.7 660.12C1520.76 669.194 1515.36 677.274 1508.1 683.46C1500.67 689.9 1491.52 694.307 1480.65 696.68L1476.02 697.5ZM1496.14 609.5C1487.81 603.8 1478.11 601.647 1467.03 603.04L1484.03 681.04C1494.7 677.707 1502.62 671.707 1507.8 663.04C1512.98 654.373 1514.41 644.68 1512.08 633.96C1509.81 623.373 1504.49 615.237 1496.14 609.55V609.5Z" fill="white"/>
<path d="M1463.67 885.47L1469.93 802.25L1431.37 781.32L1432.61 764.89L1576.85 844.42L1575.68 860L1421.16 917L1422.41 900.36L1463.67 885.47ZM1476.9 880.68L1559.84 850.86L1482.3 808.97L1476.9 880.68Z" fill="white"/>
<path d="M1486.03 1046.93C1475.74 1052.52 1463.1 1053.03 1448.09 1048.45L1385.67 1029.39L1390.11 1014.86L1451.11 1033.48C1462.3 1036.89 1471.68 1036.69 1479.26 1032.89C1486.84 1029.09 1492.21 1022 1495.37 1011.63C1498.91 1000.03 1498.26 989.803 1493.43 980.95C1488.6 972.097 1480.1 965.807 1467.95 962.08L1411.46 944.84L1415.89 930.31L1523.56 963.17L1519.31 977.08L1499.46 971.02C1504.79 976.97 1508.33 984.305 1509.67 992.18C1511.13 1000.3 1510.45 1009 1507.62 1018.29C1503.51 1031.8 1496.31 1041.34 1486.03 1046.93Z" fill="white"/>
<path d="M1471 1110.26L1464.43 1123.96L1362.92 1075.32L1369.49 1061.62L1471 1110.26ZM1496.18 1122.09C1497.53 1121.59 1498.96 1121.37 1500.39 1121.44C1501.83 1121.52 1503.23 1121.88 1504.52 1122.52C1505.79 1123.12 1506.91 1123.98 1507.84 1125.04C1508.76 1126.09 1509.45 1127.32 1509.88 1128.66C1510.38 1130.04 1510.59 1131.51 1510.5 1132.97C1510.41 1134.44 1510.02 1135.87 1509.36 1137.18C1508.76 1138.51 1507.9 1139.71 1506.83 1140.71C1505.77 1141.7 1504.51 1142.47 1503.14 1142.98C1501.86 1143.49 1500.49 1143.73 1499.11 1143.68C1497.73 1143.63 1496.38 1143.29 1495.14 1142.69C1493.8 1142.09 1492.6 1141.21 1491.61 1140.13C1490.62 1139.04 1489.86 1137.76 1489.39 1136.37C1488.89 1134.99 1488.68 1133.52 1488.77 1132.05C1488.86 1130.58 1489.25 1129.15 1489.92 1127.84C1490.52 1126.5 1491.38 1125.3 1492.45 1124.31C1493.53 1123.32 1494.8 1122.56 1496.18 1122.08V1122.09Z" fill="white"/>
<path d="M1326.15 1309.13C1314.82 1310.54 1302.87 1306.41 1290.3 1296.74L1238.67 1256.87L1247.95 1244.87L1298.44 1283.87C1307.7 1291.01 1316.48 1294.23 1324.78 1293.52C1333.08 1292.81 1340.37 1288.39 1346.64 1280.25C1353.79 1270.99 1356.56 1261.5 1354.95 1251.79C1353.34 1242.08 1347.51 1233.34 1337.46 1225.59L1290.67 1189.44L1299.96 1177.44L1350.44 1216.44C1359.7 1223.58 1368.48 1226.8 1376.78 1226.09C1385.08 1225.38 1392.41 1220.9 1398.78 1212.65C1405.84 1203.5 1408.59 1194.05 1407.02 1184.28C1405.45 1174.51 1399.65 1165.75 1389.6 1157.99L1342.84 1121.91L1352.12 1109.91L1441.23 1178.68L1432.33 1190.08L1416.07 1177.53C1419.04 1184.77 1419.85 1192.72 1418.41 1200.42C1416.78 1208.8 1413.13 1216.65 1407.78 1223.3C1402.03 1230.75 1395.46 1236 1388.07 1239.04C1380.59 1242.08 1372.32 1242.58 1364.53 1240.47C1367.88 1248.28 1368.88 1256.9 1367.42 1265.27C1365.82 1274.4 1361.94 1282.98 1356.14 1290.22C1347.51 1301.41 1337.52 1307.72 1326.15 1309.13Z" fill="white"/>
<path d="M1215.07 1400.89C1204.4 1399.83 1194.67 1393.58 1185.88 1382.14L1143.45 1326.76L1155.01 1317.91L1165.67 1331.84C1164.87 1324.96 1166.14 1318 1169.31 1311.84C1172.58 1305.17 1177.84 1299.08 1185.09 1293.56C1195.09 1285.92 1204.84 1282.22 1214.34 1282.47C1223.84 1282.72 1231.62 1286.73 1237.67 1294.51C1243.48 1302.09 1245.42 1310.31 1243.49 1319.17C1241.56 1328.03 1234.59 1337.05 1222.58 1346.24L1194.21 1367.97L1198.37 1373.41C1204.27 1381.11 1210.91 1385.32 1218.3 1386.05C1225.69 1386.78 1233.51 1383.97 1241.78 1377.63C1247.35 1373.39 1252.14 1368.21 1255.94 1362.33C1259.56 1356.86 1262.1 1350.75 1263.43 1344.33L1275.77 1349.17C1274.03 1356.85 1270.81 1364.13 1266.29 1370.58C1261.45 1377.65 1255.5 1383.9 1248.67 1389.08C1236.97 1398.01 1225.77 1401.95 1215.07 1400.89ZM1176.6 1322.53C1174.11 1329.57 1173.93 1337.21 1176.08 1344.36L1187.27 1358.97L1215.27 1337.5C1230.56 1325.78 1234.12 1314.6 1225.97 1303.96C1221.97 1298.75 1216.84 1296.16 1210.59 1296.2C1204.34 1296.24 1197.64 1298.99 1190.49 1304.45C1183.72 1309.66 1179.09 1315.69 1176.6 1322.53V1322.53Z" fill="white"/>
<path d="M1063.79 1379.08C1065.21 1375.25 1067.43 1371.77 1070.3 1368.86C1073.39 1365.64 1076.97 1362.92 1080.9 1360.8C1090.19 1355.77 1098.7 1354.4 1106.43 1356.71C1114.16 1359.02 1120.5 1364.75 1125.43 1373.9L1157.84 1433.73L1175.53 1424.15L1181.64 1435.44L1163.95 1445.03L1175.67 1466.67L1162.31 1473.9L1150.67 1452.23L1120.57 1468.54L1114.45 1457.25L1144.56 1440.94L1112.56 1381.86C1109.36 1375.96 1105.45 1372.27 1100.84 1370.8C1096.23 1369.33 1091.17 1370.09 1085.67 1373.08C1082.94 1374.54 1080.48 1376.45 1078.38 1378.73C1076.35 1380.85 1074.75 1383.35 1073.67 1386.08L1063.79 1379.08Z" fill="white"/>
<path d="M1081.09 1485.93L1067.04 1491.69L1024.33 1387.54L1038.39 1381.78L1081.09 1485.93ZM1091.85 1511.59C1093.18 1512.12 1094.39 1512.92 1095.41 1513.94C1096.42 1514.95 1097.21 1516.17 1097.74 1517.5C1098.28 1518.8 1098.54 1520.19 1098.52 1521.59C1098.5 1522.99 1098.19 1524.37 1097.61 1525.65C1097.06 1527.02 1096.23 1528.25 1095.18 1529.28C1094.13 1530.32 1092.88 1531.12 1091.5 1531.65C1090.16 1532.23 1088.72 1532.55 1087.26 1532.57C1085.8 1532.59 1084.35 1532.32 1083 1531.78C1081.7 1531.3 1080.51 1530.55 1079.52 1529.59C1078.52 1528.62 1077.75 1527.46 1077.23 1526.17C1076.65 1524.82 1076.34 1523.37 1076.34 1521.9C1076.34 1520.43 1076.65 1518.98 1077.23 1517.63C1077.78 1516.26 1078.61 1515.03 1079.66 1514C1080.7 1512.96 1081.96 1512.16 1083.33 1511.63C1084.67 1511.04 1086.12 1510.74 1087.59 1510.73C1089.05 1510.72 1090.5 1511.02 1091.85 1511.59V1511.59Z" fill="white"/>
<path d="M975.17 1411.97C984.672 1414.54 993.288 1419.66 1000.08 1426.78C1007.19 1434.28 1012.18 1443.53 1014.54 1453.59C1017.22 1463.57 1017.2 1474.09 1014.48 1484.06C1011.86 1493.53 1006.67 1502.09 999.48 1508.78C991.973 1515.74 982.787 1520.64 972.82 1522.99C962.946 1525.62 952.56 1525.65 942.67 1523.08C933.194 1520.59 924.609 1515.48 917.89 1508.35C910.838 1500.81 905.887 1491.56 903.53 1481.51C900.864 1471.54 900.864 1461.04 903.53 1451.07C906.086 1441.59 911.219 1433.01 918.36 1426.27C925.831 1419.24 935.018 1414.31 945 1411.96C954.884 1409.32 965.288 1409.33 975.17 1411.97V1411.97ZM928.67 1435.57C923.401 1440.64 919.707 1447.12 918.03 1454.24C916.209 1461.99 916.343 1470.07 918.42 1477.75C920.224 1485.5 923.925 1492.69 929.19 1498.66C934.047 1504.14 940.38 1508.1 947.43 1510.08C954.696 1512.05 962.354 1512.05 969.62 1510.08C976.947 1508.36 983.686 1504.73 989.15 1499.55C994.426 1494.46 998.15 1487.97 999.89 1480.85C1001.79 1473.1 1001.69 1465.01 999.6 1457.31C997.793 1449.54 994.051 1442.36 988.72 1436.43C983.815 1430.99 977.465 1427.05 970.41 1425.08C963.144 1423.11 955.486 1423.11 948.22 1425.08C940.889 1426.78 934.143 1430.4 928.67 1435.57V1435.57Z" fill="white"/>
<path d="M779.15 1534.37C770.483 1526.51 765.816 1514.74 765.15 1499.06L762.53 1433.84L777.71 1433.23L780.27 1496.95C780.736 1508.64 784.016 1517.43 790.11 1523.33C796.203 1529.23 804.666 1531.96 815.5 1531.52C827.62 1531.03 837.063 1527.03 843.83 1519.52C850.597 1512.01 853.723 1501.93 853.21 1489.27L850.84 1430.27L866.02 1429.66L870.54 1542.13L856 1542.72L855.17 1521.98C851.351 1528.97 845.63 1534.74 838.67 1538.62C831.49 1542.69 823.05 1544.92 813.35 1545.31C799.223 1545.88 787.823 1542.23 779.15 1534.37Z" fill="white"/>
<path d="M632.14 1569.17L573.51 1552.36C558.29 1547.99 545.727 1541.08 535.82 1531.64C526.187 1522.65 519.307 1511.1 515.98 1498.35C512.647 1485.59 512.98 1472.22 516.98 1458.24C520.98 1444.26 527.773 1432.74 537.36 1423.67C546.937 1414.61 558.892 1408.47 571.83 1405.95C585.237 1403.19 599.55 1403.99 614.77 1408.36L673.4 1425.18L632.14 1569.17ZM611.86 1421.76C599.24 1418.14 587.484 1417.47 576.59 1419.76C566.078 1421.84 556.37 1426.86 548.59 1434.23C540.844 1441.56 535.317 1451 532.01 1462.53C528.703 1474.06 528.39 1484.99 531.07 1495.32C533.74 1505.68 539.287 1515.07 547.07 1522.41C555.07 1530.13 565.404 1535.8 578.07 1539.41L620.67 1551.64L654.41 1433.98L611.86 1421.76Z" fill="white"/>
<path d="M405.79 1370.82L488.12 1416.52C493.053 1405.85 493.72 1395.41 490.12 1385.18C486.52 1374.95 479.287 1366.82 468.42 1360.78C462.682 1357.5 456.336 1355.44 449.77 1354.7C443.466 1354.05 437.095 1354.82 431.13 1356.96L428.43 1344.2C435.748 1341.38 443.643 1340.39 451.43 1341.32C459.841 1342.32 467.966 1345 475.32 1349.2C485.42 1354.81 493.177 1361.93 498.59 1370.56C503.923 1378.93 506.805 1388.63 506.91 1398.56C506.978 1408.9 504.292 1419.06 499.13 1428.02C494.28 1437.1 487.185 1444.79 478.52 1450.36C470.43 1455.56 461.054 1458.4 451.44 1458.58C441.578 1458.72 431.861 1456.2 423.31 1451.28C414.627 1446.64 407.368 1439.73 402.31 1431.28C397.445 1423.08 394.949 1413.69 395.1 1404.15C395.174 1394.32 397.91 1384.54 403.31 1374.81L405.79 1370.82ZM458.53 1444.08C468.31 1441.59 476.337 1435.72 482.61 1426.48L412.82 1387.74C408.287 1397.96 407.557 1407.88 410.63 1417.49C413.703 1427.1 420.037 1434.58 429.63 1439.91C439.123 1445.14 448.757 1446.53 458.53 1444.08Z" fill="white"/>
<path d="M406.2 1309.73C411.027 1317.06 414.027 1323.75 415.2 1329.78L402.35 1334.78C400.732 1328.27 397.987 1322.1 394.24 1316.54C390.14 1310.19 385.045 1304.54 379.15 1299.81C371.15 1293.36 364.23 1289.83 358.39 1289.24C355.698 1288.87 352.956 1289.23 350.447 1290.27C347.938 1291.31 345.751 1293 344.11 1295.17C341.51 1298.39 340.51 1301.77 341.11 1305.3C341.868 1309.13 343.448 1312.75 345.74 1315.91C349.02 1320.48 352.56 1324.86 356.34 1329.02C361.307 1334.71 365.932 1340.7 370.19 1346.94C373.355 1351.71 375.204 1357.23 375.55 1362.94C375.91 1368.74 373.713 1374.58 368.96 1380.46C363.053 1387.79 355.16 1391.32 345.28 1391.04C335.4 1390.76 325.03 1386.23 314.17 1377.46C308.44 1372.81 303.341 1367.43 299 1361.46C295.012 1356.26 291.901 1350.45 289.79 1344.25L302.61 1338.93C305.803 1349.75 312.39 1359.2 322.37 1367.27C329.923 1373.36 336.687 1376.62 342.66 1377.05C348.633 1377.48 353.37 1375.53 356.87 1371.2C358.137 1369.77 359.079 1368.08 359.633 1366.25C360.187 1364.41 360.34 1362.49 360.08 1360.59C359.451 1356.64 357.907 1352.9 355.57 1349.66C352.178 1344.94 348.54 1340.41 344.67 1336.08C339.811 1330.48 335.274 1324.61 331.08 1318.5C327.976 1313.87 326.145 1308.5 325.77 1302.93C325.383 1297.29 327.47 1291.64 332.03 1285.99C338.223 1278.33 346.323 1274.83 356.33 1275.49C366.337 1276.15 377.003 1281.05 388.33 1290.19C395.253 1295.75 401.28 1302.34 406.2 1309.73V1309.73Z" fill="white"/>
<path d="M235.06 1342.29C235.068 1343.73 234.78 1345.15 234.216 1346.47C233.652 1347.78 232.823 1348.97 231.78 1349.96C230.779 1350.94 229.587 1351.71 228.278 1352.21C226.97 1352.72 225.571 1352.95 224.17 1352.89C222.701 1352.88 221.25 1352.57 219.905 1351.98C218.56 1351.39 217.35 1350.54 216.35 1349.46C215.307 1348.44 214.478 1347.22 213.912 1345.87C213.345 1344.53 213.052 1343.08 213.05 1341.62C213.001 1340.24 213.243 1338.86 213.76 1337.58C214.277 1336.29 215.057 1335.13 216.05 1334.17C217.078 1333.12 218.31 1332.29 219.67 1331.74C221.031 1331.18 222.491 1330.91 223.96 1330.94C225.43 1330.95 226.882 1331.26 228.227 1331.85C229.572 1332.44 230.782 1333.3 231.78 1334.38C232.841 1335.4 233.68 1336.63 234.244 1337.99C234.809 1339.35 235.086 1340.82 235.06 1342.29ZM254.84 1322.73L244.24 1311.84L324.88 1233.31L335.48 1244.19L254.84 1322.73Z" fill="white"/>
<path d="M146.36 1187.96L226.73 1130.37C242.263 1119.23 256.493 1114.78 269.42 1117.02C282.347 1119.26 294.293 1128.03 305.26 1143.33C311.162 1151.47 315.726 1160.5 318.78 1170.08C321.727 1179.47 322.703 1188.12 321.71 1196.02L307.83 1196.49C308.569 1188.85 307.784 1181.14 305.52 1173.8C303.136 1165.8 299.417 1158.27 294.52 1151.51C286.207 1139.92 277.403 1133.33 268.11 1131.74C258.817 1130.15 248.483 1133.43 237.11 1141.58L225.46 1149.93C233.819 1149.56 242.119 1151.49 249.46 1155.5C257.138 1159.74 263.741 1165.68 268.76 1172.87C274.705 1180.94 278.525 1190.38 279.87 1200.32C281.16 1209.8 279.775 1219.45 275.87 1228.19C271.784 1237.26 265.305 1245.04 257.13 1250.71C249.164 1256.62 239.733 1260.23 229.86 1261.16C220.409 1262.01 210.91 1260.2 202.43 1255.94C193.461 1251.4 185.763 1244.71 180.03 1236.45C174.715 1229.25 171.166 1220.9 169.67 1212.08C168.298 1203.7 169.238 1195.11 172.39 1187.23L154.82 1199.82L146.36 1187.96ZM239.85 1164.67C233.42 1161.41 226.193 1160.06 219.02 1160.77C211.571 1161.55 204.467 1164.31 198.45 1168.77C192.305 1173 187.423 1178.82 184.32 1185.61C181.396 1192.13 180.357 1199.35 181.32 1206.43C182.387 1214.06 185.358 1221.31 189.96 1227.49C194.312 1233.77 200.153 1238.87 206.96 1242.33C213.34 1245.58 220.518 1246.92 227.64 1246.2C235.088 1245.42 242.191 1242.66 248.21 1238.2C254.376 1233.94 259.287 1228.1 262.43 1221.3C265.398 1214.76 266.459 1207.52 265.49 1200.41C264.447 1192.85 261.517 1185.66 256.97 1179.53C252.592 1173.23 246.707 1168.12 239.85 1164.67V1164.67Z" fill="white"/>
<path d="M91.8201 1048.08C96.0734 1037.17 105.407 1028.62 119.82 1022.43L179.82 996.66L185.82 1010.66L127.23 1035.84C116.483 1040.45 109.443 1046.65 106.11 1054.46C102.777 1062.27 103.257 1071.15 107.55 1081.1C112.33 1092.24 119.427 1099.63 128.84 1103.27C138.253 1106.91 148.79 1106.23 160.45 1101.22L214.71 1077.9L220.71 1091.9L117.3 1136.34L111.55 1122.97L130.62 1114.78C122.713 1113.69 115.277 1110.38 109.17 1105.24C102.797 1099.99 97.6934 1092.91 93.86 1083.99C88.26 1070.96 87.5801 1058.99 91.8201 1048.08Z" fill="white"/>
<path d="M2.35999 933.46L0 919.53L197.49 886.08L199.85 900.01L2.35999 933.46Z" fill="white"/>
<path d="M139.89 771.54C132.725 782.742 122.597 791.742 110.63 797.54C98.2925 803.494 84.5763 806.006 70.9297 804.81C57.2582 803.995 44.0605 799.504 32.7298 791.81C21.7224 784.31 13.0152 773.9 7.57978 761.74C1.91978 749.313 -0.37022 735.7 0.70978 720.9C1.3756 710.388 4.02553 700.097 8.51972 690.57C12.7078 681.725 18.8651 673.957 26.5197 667.86L35.8098 678.63C23.1431 689.43 16.1431 703.723 14.8098 721.51C13.8447 732.763 15.8227 744.073 20.5497 754.33C25.0446 764.167 32.1397 772.59 41.0698 778.69C50.2635 784.935 60.975 788.577 72.0698 789.23C83.1344 790.202 94.2562 788.167 104.26 783.34C113.989 778.612 122.243 771.316 128.13 762.24C134.309 752.785 137.921 741.884 138.61 730.61C139.943 712.677 135.05 697.513 123.93 685.12L134.7 675.82C141.402 683.011 146.38 691.632 149.26 701.03C152.371 711.139 153.522 721.749 152.65 732.29C151.57 747.063 147.316 760.147 139.89 771.54Z" fill="white"/>
<path d="M159.36 641.64C152.372 648.569 143.618 653.449 134.05 655.75C123.991 658.124 113.482 657.779 103.6 654.75C93.6208 652.058 84.537 646.76 77.28 639.4C70.3963 632.395 65.5944 623.615 63.41 614.04C61.1573 604.052 61.5328 593.65 64.5 583.85C67.1835 573.969 72.3827 564.953 79.5901 557.68C86.5098 550.752 95.2331 545.901 104.77 543.68C114.827 541.36 125.317 541.722 135.19 544.73C145.156 547.421 154.242 552.679 161.54 559.98C168.458 566.947 173.305 575.699 175.54 585.26C177.86 595.247 177.515 605.668 174.54 615.48C171.858 625.379 166.623 634.4 159.36 641.64ZM162.28 589.64C160.533 582.539 156.78 576.089 151.47 571.06C145.683 565.597 138.628 561.659 130.94 559.6C123.328 557.268 115.256 556.866 107.45 558.43C100.286 559.864 93.6884 563.337 88.4501 568.43C83.0891 573.715 79.2305 580.332 77.27 587.6C75.074 594.798 74.8359 602.45 76.5801 609.77C78.3255 616.895 82.0648 623.374 87.36 628.45C93.1083 633.974 100.16 637.954 107.86 640.02C115.481 642.356 123.569 642.724 131.37 641.09C138.531 639.577 145.118 636.069 150.37 630.97C155.729 625.688 159.588 619.075 161.55 611.81C163.755 604.602 164.007 596.938 162.28 589.6V589.64Z" fill="white"/>
<path d="M201.35 520.63C193.124 526.033 183.575 529.08 173.74 529.44C163.41 529.782 153.176 527.365 144.09 522.44C134.84 517.825 126.985 510.833 121.33 502.18C115.972 493.951 113.005 484.396 112.76 474.58C112.535 464.341 114.967 454.219 119.82 445.2C124.419 436.047 131.31 428.241 139.82 422.54C147.979 417.112 157.495 414.077 167.29 413.78C177.608 413.503 187.817 415.937 196.9 420.84C206.133 425.475 213.985 432.454 219.67 441.08C225.071 449.282 228.086 458.824 228.38 468.64C228.668 478.891 226.254 489.037 221.38 498.06C216.792 507.206 209.886 514.988 201.35 520.63V520.63ZM214.53 470.2C214.228 462.894 211.829 455.829 207.62 449.85C203.027 443.348 196.89 438.09 189.76 434.55C182.766 430.755 174.938 428.758 166.98 428.74C159.67 428.718 152.508 430.801 146.35 434.74C140.053 438.86 134.963 444.578 131.6 451.31C128.021 457.932 126.267 465.387 126.52 472.91C126.827 480.238 129.205 487.329 133.38 493.36C137.924 499.912 144.05 505.21 151.19 508.76C158.197 512.557 166.05 514.521 174.02 514.47C181.356 514.425 188.528 512.296 194.7 508.33C201 504.21 206.093 498.492 209.46 491.76C213.025 485.147 214.774 477.708 214.53 470.2Z" fill="white"/>
<path d="M134.23 334.16L143.07 321.8L272.22 414.18L263.38 426.53L134.23 334.16Z" fill="white"/>
<path d="M253.36 229.69L292.36 273.69L350.36 222.29L359.44 232.54L301.44 283.94L343.62 331.49L331.82 342.08L232.42 230L309.28 161.84L318.36 172.09L253.36 229.69Z" fill="white"/>
<path d="M508.45 214.71L433.45 182.13L425.04 263.32L409.33 272.48L419.71 177.25L337.03 141.25L352.74 132.09L422.58 162.23L430.58 86.7198L445.37 78.09L435.95 167.31L524.32 205.46L508.45 214.71Z" fill="white"/>
<path d="M550.67 29.5699L564.19 25.4899L622.1 217.24L608.59 221.32L550.67 29.5699Z" fill="white"/>
</g>
<defs>
<clipPath id="clip0">
<rect width="1576.85" height="1569.17" fill="white"/>
</clipPath>
</defs>
</svg>
