<svg width="2396" height="198" viewBox="0 0 2396 198" fill="none" xmlns="http://www.w3.org/2000/svg">
<path d="M1198.02 4.77438e-06L2395.28 0.299384C2395.28 0.299384 2396 58.8891 2396 198C2335.03 104.817 2166.66 25.5932 1991.58 104.318C1866.61 160.513 1803.6 143.461 1716.22 97.3338C1712.38 95.3617 1708.25 93.1836 1703.83 90.851C1652.05 63.5257 1560.07 14.9933 1425.91 27.9279C1347.04 35.5322 1312.64 57.1534 1283.65 75.3754C1259.11 90.7943 1238.45 103.779 1198 103.779C1151.22 103.646 1129.36 89.9853 1103.78 73.9932C1075.94 56.5913 1043.69 36.4282 970.089 27.9279C835.96 14.9871 743.997 63.5019 692.205 90.8241C687.771 93.1633 683.631 95.3472 679.785 97.3238C592.386 143.421 529.394 160.473 404.409 104.308C229.341 25.5832 60.9923 104.807 0 197.98C0 58.8793 0.710123 0.299384 0.710123 0.299384L1197.98 4.98344e-06C1197.99 1.66147e-06 1197.99 0 1198 0C1198.01 0 1198.01 1.59167e-06 1198.02 4.77438e-06Z" fill="#00cc80" fill-opacity="1"/>
</svg>
